SplineFontDB: 3.2
FontName: Xesada
FullName: Xesada
FamilyName: Xesada
Weight: Regular
Copyright: Copyright (c) 2024, W.F.Turnip
UComments: "2024-6-10: Created with FontForge (http://fontforge.org)"
Version: 001.000
ItalicAngle: 0
UnderlinePosition: -89
UnderlineWidth: 44
Ascent: 625
Descent: 225
InvalidEm: 0
LayerCount: 2
Layer: 0 1 "+gMyXYgAA" 1
Layer: 1 1 "+Uk2XYgAA" 0
XUID: [1021 352 -730677569 469127]
StyleMap: 0x0000
FSType: 0
OS2Version: 0
OS2_WeightWidthSlopeOnly: 0
OS2_UseTypoMetrics: 1
CreationTime: 1717996751
ModificationTime: 1771069217
OS2TypoAscent: 0
OS2TypoAOffset: 1
OS2TypoDescent: 0
OS2TypoDOffset: 1
OS2TypoLinegap: 76
OS2WinAscent: 0
OS2WinAOffset: 1
OS2WinDescent: 0
OS2WinDOffset: 1
HheadAscent: 0
HheadAOffset: 1
HheadDescent: 0
HheadDOffset: 1
OS2Vendor: 'PfEd'
Lookup: 260 0 0 "mark" { "mark-1"  } ['mark' ('latn' <'dflt' > ) ]
MarkAttachClasses: 1
DEI: 91125
Encoding: UnicodeBmp
UnicodeInterp: none
NameList: AGL For New Fonts
DisplaySize: -48
AntiAlias: 1
FitToEm: 0
WinInfo: 14 14 10
BeginPrivate: 0
EndPrivate
AnchorClass2: "vowel" "mark-1" "cantillation""" 
BeginChars: 65536 112

StartChar: nine
Encoding: 57 57 0
Width: 500
GlyphClass: 1
Flags: W
LayerCount: 2
Fore
SplineSet
250 425 m 1,0,-1
 444.85546875 312.5 l 1,1,-1
 444.85546875 287.5 l 1,2,-1
 423.205078125 275 l 1,3,-1
 250 375 l 1,4,-1
 98.4453125 287.5 l 1,5,-1
 98.4453125 112.5 l 1,6,-1
 271.650390625 12.5 l 1,7,-1
 271.650390625 -12.5 l 1,8,-1
 250 -25 l 1,9,-1
 55.14453125 87.5 l 1,10,-1
 55.14453125 312.5 l 1,11,-1
 250 425 l 1,0,-1
250 325 m 1,12,-1
 358.25390625 262.5 l 1,13,-1
 358.25390625 137.5 l 1,14,-1
 250 75 l 1,15,-1
 141.74609375 137.5 l 1,16,-1
 141.74609375 262.5 l 1,17,-1
 250 325 l 1,12,-1
250 275 m 1,18,-1
 185.048828125 237.5 l 1,19,-1
 185.048828125 162.5 l 1,20,-1
 250 125 l 1,21,-1
 314.951171875 162.5 l 1,22,-1
 314.951171875 237.5 l 1,23,-1
 250 275 l 1,18,-1
EndSplineSet
EndChar

StartChar: eight
Encoding: 56 56 1
Width: 500
GlyphClass: 1
Flags: W
LayerCount: 2
Fore
SplineSet
250 425 m 1,0,-1
 444.85546875 312.5 l 1,1,-1
 444.85546875 87.5 l 1,2,-1
 423.205078125 75 l 1,3,-1
 401.5546875 87.5 l 1,4,-1
 401.5546875 287.5 l 1,5,-1
 250 375 l 1,6,-1
 98.4453125 287.5 l 1,7,-1
 98.4453125 87.5 l 1,8,-1
 76.794921875 75 l 1,9,-1
 55.14453125 87.5 l 1,10,-1
 55.14453125 312.5 l 1,11,-1
 250 425 l 1,0,-1
250 325 m 1,12,-1
 358.25390625 262.5 l 1,13,-1
 358.25390625 137.5 l 1,14,-1
 250 75 l 1,15,-1
 141.74609375 137.5 l 1,16,-1
 141.74609375 262.5 l 1,17,-1
 250 325 l 1,12,-1
250 275 m 1,18,-1
 185.048828125 237.5 l 1,19,-1
 185.048828125 162.5 l 1,20,-1
 250 125 l 1,21,-1
 314.951171875 162.5 l 1,22,-1
 314.951171875 237.5 l 1,23,-1
 250 275 l 1,18,-1
EndSplineSet
EndChar

StartChar: parenleft
Encoding: 40 40 2
Width: 500
GlyphClass: 1
Flags: W
LayerCount: 2
Fore
SplineSet
336.603515625 525 m 1,0,-1
 358.25390625 512.5 l 1,1,-1
 358.25390625 487.501953125 l 1,2,-1
 271.650390625 437.5 l 1,3,-1
 271.650390625 -37.5 l 1,4,-1
 358.25390625 -87.501953125 l 1,5,-1
 358.25390625 -112.5 l 1,6,-1
 336.603515625 -125 l 1,7,-1
 228.349609375 -62.5 l 1,8,-1
 228.349609375 462.5 l 1,9,-1
 336.603515625 525 l 1,0,-1
EndSplineSet
EndChar

StartChar: parenright
Encoding: 41 41 3
Width: 500
GlyphClass: 1
Flags: W
LayerCount: 2
Fore
SplineSet
163.396484375 525 m 1,0,-1
 271.650390625 462.5 l 1,1,-1
 271.650390625 -62.5 l 1,2,-1
 163.396484375 -125 l 1,3,-1
 141.74609375 -112.5 l 1,4,-1
 141.74609375 -87.501953125 l 1,5,-1
 228.349609375 -37.5 l 1,6,-1
 228.349609375 437.5 l 1,7,-1
 141.74609375 487.501953125 l 1,8,-1
 141.74609375 512.5 l 1,9,-1
 163.396484375 525 l 1,0,-1
EndSplineSet
EndChar

StartChar: l
Encoding: 108 108 4
Width: 500
GlyphClass: 2
Flags: W
AnchorPoint: "vowel" 250 200 basechar 0
LayerCount: 2
Fore
SplineSet
250 425 m 1,0,-1
 423.205078125 325 l 1,1,-1
 444.85546875 312.5 l 1,2,-1
 444.85546875 87.5 l 1,3,-1
 423.205078125 75 l 1,4,-1
 250 -25 l 1,5,-1
 76.794921875 75 l 1,6,-1
 55.14453125 87.5 l 1,7,-1
 55.14453125 312.5 l 1,8,-1
 76.794921875 325 l 1,9,-1
 250 425 l 1,0,-1
250 375 m 1,10,-1
 98.4453125 287.5 l 1,11,-1
 98.4453125 112.5 l 1,12,-1
 250 25 l 1,13,-1
 401.5546875 112.5 l 1,14,-1
 401.5546875 287.5 l 1,15,-1
 250 375 l 1,10,-1
76.794921875 325 m 1,16,-1
 444.853515625 112.5 l 1,17,-1
 444.853515625 87.5 l 1,18,-1
 423.204101562 75 l 1,19,-1
 55.14453125 287.5 l 1,20,-1
 55.14453125 312.5 l 1,21,-1
 76.794921875 325 l 1,16,-1
EndSplineSet
EndChar

StartChar: Y
Encoding: 89 89 5
Width: 500
GlyphClass: 2
Flags: W
AnchorPoint: "vowel" 250 200 basechar 0
LayerCount: 2
Fore
SplineSet
250 -25 m 1,0,-1
 55.14453125 87.5 l 1,1,-1
 55.14453125 112.5 l 1,2,-1
 76.794921875 125 l 1,3,-1
 250 25 l 1,4,-1
 401.5546875 112.5 l 1,5,-1
 401.5546875 287.5 l 1,6,-1
 250 375 l 1,7,-1
 76.794921875 275 l 1,8,-1
 55.14453125 287.5 l 1,9,-1
 55.14453125 312.5 l 1,10,-1
 250 425 l 1,11,-1
 444.85546875 312.5 l 1,12,-1
 444.85546875 87.5 l 1,13,-1
 250 -25 l 1,0,-1
76.794921875 325 m 1,14,-1
 444.853515625 112.5 l 1,15,-1
 444.853515625 87.5 l 1,16,-1
 423.204101562 75 l 1,17,-1
 55.14453125 287.5 l 1,18,-1
 55.14453125 312.5 l 1,19,-1
 76.794921875 325 l 1,14,-1
250 325 m 1,20,-1
 358.25390625 262.5 l 1,21,-1
 358.25390625 137.5 l 1,22,-1
 250 75 l 1,23,-1
 141.74609375 137.5 l 1,24,-1
 141.74609375 262.5 l 1,25,-1
 250 325 l 1,20,-1
250 275 m 1,26,-1
 185.048828125 237.5 l 1,27,-1
 185.048828125 162.5 l 1,28,-1
 250 125 l 1,29,-1
 314.951171875 162.5 l 1,30,-1
 314.951171875 237.5 l 1,31,-1
 250 275 l 1,26,-1
EndSplineSet
EndChar

StartChar: q
Encoding: 113 113 6
Width: 500
GlyphClass: 2
Flags: W
AnchorPoint: "vowel" 250 200 basechar 0
LayerCount: 2
Fore
SplineSet
250 -25 m 1,0,-1
 55.14453125 87.5 l 1,1,-1
 55.14453125 112.5 l 1,2,-1
 76.794921875 125 l 1,3,-1
 250 25 l 1,4,-1
 401.5546875 112.5 l 1,5,-1
 401.5546875 287.5 l 1,6,-1
 250 375 l 1,7,-1
 76.794921875 275 l 1,8,-1
 55.14453125 287.5 l 1,9,-1
 55.14453125 312.5 l 1,10,-1
 250 425 l 1,11,-1
 444.85546875 312.5 l 1,12,-1
 444.85546875 87.5 l 1,13,-1
 250 -25 l 1,0,-1
EndSplineSet
EndChar

StartChar: e
Encoding: 101 101 7
Width: 0
VWidth: 894
GlyphClass: 4
Flags: W
AnchorPoint: "vowel" -250 200 mark 0
LayerCount: 2
Fore
SplineSet
-423.205078125 525 m 1,0,-1
 -401.5546875 512.5 l 1,1,-1
 -250 425 l 1,2,-1
 -228.349609375 412.5 l 1,3,-1
 -228.349609375 387.5 l 1,4,-1
 -250 375 l 1,5,-1
 -271.650390625 387.5 l 1,6,-1
 -444.85546875 487.5 l 1,7,-1
 -444.85546875 512.5 l 1,8,-1
 -423.205078125 525 l 1,0,-1
EndSplineSet
EndChar

StartChar: d
Encoding: 100 100 8
Width: 500
GlyphClass: 2
Flags: W
AnchorPoint: "vowel" 250 200 basechar 0
LayerCount: 2
Fore
SplineSet
444.856445312 312.5 m 1,0,-1
 444.856445312 87.5 l 1,1,-1
 250 -25 l 1,2,-1
 55.14453125 87.5 l 1,3,-1
 55.14453125 312.5 l 1,4,-1
 76.794921875 325 l 1,5,-1
 98.4462890625 312.5 l 1,6,-1
 98.4462890625 112.5 l 1,7,-1
 250 25 l 1,8,-1
 401.5546875 112.5 l 1,9,-1
 401.5546875 312.5 l 1,10,-1
 423.206054688 325 l 1,11,-1
 444.856445312 312.5 l 1,0,-1
76.794921875 325 m 1,12,-1
 444.853515625 112.5 l 1,13,-1
 444.853515625 87.5 l 1,14,-1
 423.204101562 75 l 1,15,-1
 55.14453125 287.5 l 1,16,-1
 55.14453125 312.5 l 1,17,-1
 76.794921875 325 l 1,12,-1
EndSplineSet
EndChar

StartChar: p
Encoding: 112 112 9
Width: 500
GlyphClass: 2
Flags: W
AnchorPoint: "vowel" 250 200 basechar 0
LayerCount: 2
Fore
SplineSet
250 425 m 1,0,-1
 444.85546875 312.5 l 1,1,-1
 444.85546875 287.5 l 1,2,-1
 423.205078125 275 l 1,3,-1
 250 375 l 1,4,-1
 98.4453125 287.5 l 1,5,-1
 98.4453125 112.5 l 1,6,-1
 250 25 l 1,7,-1
 423.205078125 125 l 1,8,-1
 444.85546875 112.5 l 1,9,-1
 444.85546875 87.5 l 1,10,-1
 250 -25 l 1,11,-1
 55.14453125 87.5 l 1,12,-1
 55.14453125 312.5 l 1,13,-1
 250 425 l 1,0,-1
EndSplineSet
EndChar

StartChar: X
Encoding: 88 88 10
Width: 500
GlyphClass: 2
Flags: W
AnchorPoint: "vowel" 250 200 basechar 0
LayerCount: 2
Fore
SplineSet
228.349609375 -12.5 m 1,0,-1
 228.348632812 12.5 l 1,1,-1
 401.553710938 112.5 l 1,2,-1
 401.553710938 287.5 l 1,3,-1
 250 375 l 1,4,-1
 76.7939453125 275 l 1,5,-1
 55.1435546875 287.5 l 1,6,-1
 55.1435546875 312.5 l 1,7,-1
 250 425 l 1,8,-1
 444.856445312 312.5 l 1,9,-1
 444.856445312 87.5 l 1,10,-1
 250 -25 l 1,11,-1
 228.349609375 -12.5 l 1,0,-1
76.794921875 325 m 1,12,-1
 444.853515625 112.5 l 1,13,-1
 444.853515625 87.5 l 1,14,-1
 423.204101562 75 l 1,15,-1
 55.14453125 287.5 l 1,16,-1
 55.14453125 312.5 l 1,17,-1
 76.794921875 325 l 1,12,-1
EndSplineSet
EndChar

StartChar: k
Encoding: 107 107 11
Width: 500
GlyphClass: 2
Flags: W
AnchorPoint: "vowel" 250 200 basechar 0
LayerCount: 2
Fore
SplineSet
250 425 m 1,0,-1
 444.85546875 312.5 l 1,1,-1
 444.85546875 87.5 l 1,2,-1
 250 -25 l 1,3,-1
 55.14453125 87.5 l 1,4,-1
 55.14453125 112.5 l 1,5,-1
 76.794921875 125 l 1,6,-1
 250 25 l 1,7,-1
 401.5546875 112.5 l 1,8,-1
 401.5546875 287.5 l 1,9,-1
 228.349609375 387.5 l 1,10,-1
 228.349609375 412.5 l 1,11,-1
 250 425 l 1,0,-1
EndSplineSet
EndChar

StartChar: braceright
Encoding: 125 125 12
Width: 500
GlyphClass: 1
Flags: W
LayerCount: 2
Fore
SplineSet
163.396484375 525 m 1,0,-1
 271.651367188 462.500976562 l 1,1,-1
 271.651367188 262.500976562 l 1,2,-1
 336.6015625 225.000976562 l 1,3,-1
 336.603515625 225.000976562 l 1,4,-1
 358.25390625 212.500976562 l 1,5,-1
 358.25390625 187.5 l 1,6,-1
 336.603515625 175 l 1,7,-1
 336.6015625 175 l 1,8,-1
 271.650390625 137.5 l 1,9,-1
 271.650390625 -62.5 l 1,10,-1
 163.396484375 -125 l 1,11,-1
 141.74609375 -112.5 l 1,12,-1
 141.74609375 -87.501953125 l 1,13,-1
 228.349609375 -37.5 l 1,14,-1
 228.349609375 162.5 l 1,15,-1
 293.302734375 200 l 1,16,-1
 228.349609375 237.5 l 1,17,-1
 228.349609375 437.5 l 1,18,-1
 141.74609375 487.501953125 l 1,19,-1
 141.74609375 512.5 l 1,20,-1
 163.396484375 525 l 1,0,-1
EndSplineSet
EndChar

StartChar: f
Encoding: 102 102 13
Width: 500
GlyphClass: 2
Flags: W
AnchorPoint: "vowel" 250 200 basechar 0
LayerCount: 2
Fore
SplineSet
250 425 m 1,0,-1
 444.85546875 312.5 l 1,1,-1
 444.85546875 87.5 l 1,2,-1
 423.205078125 75 l 1,3,-1
 401.5546875 87.5 l 1,4,-1
 401.5546875 287.5 l 1,5,-1
 250 375 l 1,6,-1
 98.4453125 287.5 l 1,7,-1
 98.4453125 87.5 l 1,8,-1
 76.794921875 75 l 1,9,-1
 55.14453125 87.5 l 1,10,-1
 55.14453125 312.5 l 1,11,-1
 250 425 l 1,0,-1
EndSplineSet
EndChar

StartChar: r
Encoding: 114 114 14
Width: 500
GlyphClass: 2
Flags: W
AnchorPoint: "vowel" 250 200 basechar 0
LayerCount: 2
Fore
SplineSet
250 425 m 1,0,-1
 423.205078125 325 l 1,1,-1
 444.85546875 312.5 l 1,2,-1
 444.85546875 87.5 l 1,3,-1
 423.205078125 75 l 1,4,-1
 250 -25 l 1,5,-1
 76.794921875 75 l 1,6,-1
 55.14453125 87.5 l 1,7,-1
 55.14453125 312.5 l 1,8,-1
 76.794921875 325 l 1,9,-1
 250 425 l 1,0,-1
250 375 m 1,10,-1
 98.4453125 287.5 l 1,11,-1
 98.4453125 112.5 l 1,12,-1
 250 25 l 1,13,-1
 401.5546875 112.5 l 1,14,-1
 401.5546875 287.5 l 1,15,-1
 250 375 l 1,10,-1
EndSplineSet
EndChar

StartChar: s
Encoding: 115 115 15
Width: 500
GlyphClass: 2
Flags: W
AnchorPoint: "vowel" 250 200 basechar 0
LayerCount: 2
Fore
SplineSet
444.856445312 87.5 m 1,0,-1
 250 -25 l 1,1,-1
 55.1435546875 87.5 l 1,2,-1
 55.1435546875 312.5 l 1,3,-1
 250 425 l 1,4,-1
 271.650390625 412.5 l 1,5,-1
 271.650390625 387.5 l 1,6,-1
 98.4453125 287.5 l 1,7,-1
 98.4453125 112.5 l 1,8,-1
 250 25 l 1,9,-1
 423.205078125 125 l 1,10,-1
 444.856445312 112.5 l 1,11,-1
 444.856445312 87.5 l 1,0,-1
EndSplineSet
EndChar

StartChar: g
Encoding: 103 103 16
Width: 500
GlyphClass: 2
Flags: W
AnchorPoint: "vowel" 250 200 basechar 0
LayerCount: 2
Fore
SplineSet
250 425 m 1,0,-1
 444.85546875 312.5 l 1,1,-1
 444.85546875 87.5 l 1,2,-1
 250 -25 l 1,3,-1
 55.14453125 87.5 l 1,4,-1
 55.14453125 112.5 l 1,5,-1
 76.794921875 125 l 1,6,-1
 250 25 l 1,7,-1
 401.5546875 112.5 l 1,8,-1
 401.5546875 287.5 l 1,9,-1
 228.349609375 387.5 l 1,10,-1
 228.349609375 412.5 l 1,11,-1
 250 425 l 1,0,-1
76.794921875 325 m 1,12,-1
 444.853515625 112.5 l 1,13,-1
 444.853515625 87.5 l 1,14,-1
 423.204101562 75 l 1,15,-1
 55.14453125 287.5 l 1,16,-1
 55.14453125 312.5 l 1,17,-1
 76.794921875 325 l 1,12,-1
EndSplineSet
EndChar

StartChar: asciitilde
Encoding: 126 126 17
Width: 500
GlyphClass: 1
Flags: W
LayerCount: 2
Fore
SplineSet
98.4462890625 312.5 m 1,0,-1
 98.4462890625 287.5 l 1,1,-1
 98.4462890625 112.5 l 1,2,-1
 250 25 l 1,3,-1
 271.650390625 12.5 l 1,4,-1
 271.650390625 -12.5 l 1,5,-1
 250 -25 l 1,6,-1
 55.14453125 87.5 l 1,7,-1
 55.14453125 312.5 l 1,8,-1
 76.7958984375 325 l 1,9,-1
 98.4462890625 312.5 l 1,0,-1
444.856445312 312.5 m 1,10,-1
 444.85546875 87.5 l 1,11,-1
 423.204101562 75 l 1,12,-1
 401.553710938 87.5 l 1,13,-1
 401.553710938 287.5 l 1,14,-1
 250 375 l 1,15,-1
 228.349609375 387.5 l 1,16,-1
 228.349609375 412.5 l 1,17,-1
 250 425 l 1,18,-1
 444.856445312 312.5 l 1,10,-1
76.794921875 325 m 1,19,-1
 444.853515625 112.5 l 1,20,-1
 444.853515625 87.5 l 1,21,-1
 423.204101562 75 l 1,22,-1
 55.14453125 287.5 l 1,23,-1
 55.14453125 312.5 l 1,24,-1
 76.794921875 325 l 1,19,-1
EndSplineSet
EndChar

StartChar: j
Encoding: 106 106 18
Width: 500
GlyphClass: 2
Flags: W
AnchorPoint: "vowel" 250 200 basechar 0
LayerCount: 2
Fore
SplineSet
444.856445312 87.5 m 1,0,-1
 250 -25 l 1,1,-1
 55.1435546875 87.5 l 1,2,-1
 55.1435546875 312.5 l 1,3,-1
 250 425 l 1,4,-1
 271.650390625 412.5 l 1,5,-1
 271.650390625 387.5 l 1,6,-1
 98.4453125 287.5 l 1,7,-1
 98.4453125 112.5 l 1,8,-1
 250 25 l 1,9,-1
 423.205078125 125 l 1,10,-1
 444.856445312 112.5 l 1,11,-1
 444.856445312 87.5 l 1,0,-1
76.794921875 325 m 1,12,-1
 444.853515625 112.5 l 1,13,-1
 444.853515625 87.5 l 1,14,-1
 423.204101562 75 l 1,15,-1
 55.14453125 287.5 l 1,16,-1
 55.14453125 312.5 l 1,17,-1
 76.794921875 325 l 1,12,-1
250 325 m 1,18,-1
 358.25390625 262.5 l 1,19,-1
 358.25390625 137.5 l 1,20,-1
 250 75 l 1,21,-1
 141.74609375 137.5 l 1,22,-1
 141.74609375 262.5 l 1,23,-1
 250 325 l 1,18,-1
250 275 m 1,24,-1
 185.048828125 237.5 l 1,25,-1
 185.048828125 162.5 l 1,26,-1
 250 125 l 1,27,-1
 314.951171875 162.5 l 1,28,-1
 314.951171875 237.5 l 1,29,-1
 250 275 l 1,24,-1
EndSplineSet
EndChar

StartChar: c
Encoding: 99 99 19
Width: 500
GlyphClass: 2
Flags: W
AnchorPoint: "vowel" 250 200 basechar 0
LayerCount: 2
Fore
SplineSet
250 -25 m 1,0,-1
 55.14453125 87.5 l 1,1,-1
 55.14453125 112.5 l 1,2,-1
 76.794921875 125 l 1,3,-1
 250 25 l 1,4,-1
 401.5546875 112.5 l 1,5,-1
 401.5546875 287.5 l 1,6,-1
 250 375 l 1,7,-1
 76.794921875 275 l 1,8,-1
 55.14453125 287.5 l 1,9,-1
 55.14453125 312.5 l 1,10,-1
 250 425 l 1,11,-1
 444.85546875 312.5 l 1,12,-1
 444.85546875 87.5 l 1,13,-1
 250 -25 l 1,0,-1
76.794921875 325 m 1,14,-1
 444.853515625 112.5 l 1,15,-1
 444.853515625 87.5 l 1,16,-1
 423.204101562 75 l 1,17,-1
 55.14453125 287.5 l 1,18,-1
 55.14453125 312.5 l 1,19,-1
 76.794921875 325 l 1,14,-1
EndSplineSet
EndChar

StartChar: w
Encoding: 119 119 20
Width: 0
VWidth: 894
GlyphClass: 4
Flags: W
AnchorPoint: "vowel" -250 200 mark 0
LayerCount: 2
Fore
SplineSet
-423.205078125 -75 m 1,0,-1
 -401.5546875 -87.5 l 1,1,-1
 -250 -175 l 1,2,-1
 -98.4453125 -87.5 l 1,3,-1
 -76.794921875 -75 l 1,4,-1
 -55.14453125 -87.5 l 1,5,-1
 -55.14453125 -112.5 l 1,6,-1
 -250 -225 l 1,7,-1
 -444.85546875 -112.5 l 1,8,-1
 -444.85546875 -87.5 l 1,9,-1
 -423.205078125 -75 l 1,0,-1
EndSplineSet
EndChar

StartChar: n
Encoding: 110 110 21
Width: 500
GlyphClass: 2
Flags: W
AnchorPoint: "vowel" 250 200 basechar 0
LayerCount: 2
Fore
SplineSet
250 425 m 1,0,-1
 444.85546875 312.5 l 1,1,-1
 444.85546875 287.5 l 1,2,-1
 423.205078125 275 l 1,3,-1
 250 375 l 1,4,-1
 98.4453125 287.5 l 1,5,-1
 98.4453125 112.5 l 1,6,-1
 271.650390625 12.5 l 1,7,-1
 271.650390625 -12.5 l 1,8,-1
 250 -25 l 1,9,-1
 55.14453125 87.5 l 1,10,-1
 55.14453125 312.5 l 1,11,-1
 250 425 l 1,0,-1
76.794921875 325 m 1,12,-1
 444.853515625 112.5 l 1,13,-1
 444.853515625 87.5 l 1,14,-1
 423.204101562 75 l 1,15,-1
 55.14453125 287.5 l 1,16,-1
 55.14453125 312.5 l 1,17,-1
 76.794921875 325 l 1,12,-1
EndSplineSet
EndChar

StartChar: z
Encoding: 122 122 22
Width: 500
GlyphClass: 2
Flags: W
AnchorPoint: "vowel" 250 200 basechar 0
LayerCount: 2
Fore
SplineSet
444.856445312 87.5 m 1,0,-1
 250 -25 l 1,1,-1
 55.1435546875 87.5 l 1,2,-1
 55.1435546875 312.5 l 1,3,-1
 250 425 l 1,4,-1
 271.650390625 412.5 l 1,5,-1
 271.650390625 387.5 l 1,6,-1
 98.4453125 287.5 l 1,7,-1
 98.4453125 112.5 l 1,8,-1
 250 25 l 1,9,-1
 423.205078125 125 l 1,10,-1
 444.856445312 112.5 l 1,11,-1
 444.856445312 87.5 l 1,0,-1
76.794921875 325 m 1,12,-1
 444.853515625 112.5 l 1,13,-1
 444.853515625 87.5 l 1,14,-1
 423.204101562 75 l 1,15,-1
 55.14453125 287.5 l 1,16,-1
 55.14453125 312.5 l 1,17,-1
 76.794921875 325 l 1,12,-1
EndSplineSet
EndChar

StartChar: m
Encoding: 109 109 23
Width: 500
GlyphClass: 2
Flags: W
AnchorPoint: "vowel" 250 200 basechar 0
LayerCount: 2
Fore
SplineSet
250 425 m 1,0,-1
 444.85546875 312.5 l 1,1,-1
 444.85546875 287.5 l 1,2,-1
 423.205078125 275 l 1,3,-1
 250 375 l 1,4,-1
 98.4453125 287.5 l 1,5,-1
 98.4453125 112.5 l 1,6,-1
 271.650390625 12.5 l 1,7,-1
 271.650390625 -12.5 l 1,8,-1
 250 -25 l 1,9,-1
 55.14453125 87.5 l 1,10,-1
 55.14453125 312.5 l 1,11,-1
 250 425 l 1,0,-1
EndSplineSet
EndChar

StartChar: v
Encoding: 118 118 24
Width: 500
GlyphClass: 2
Flags: W
AnchorPoint: "vowel" 250 200 basechar 0
LayerCount: 2
Fore
SplineSet
250 425 m 1,0,-1
 444.85546875 312.5 l 1,1,-1
 444.85546875 87.5 l 1,2,-1
 423.205078125 75 l 1,3,-1
 401.5546875 87.5 l 1,4,-1
 401.5546875 287.5 l 1,5,-1
 250 375 l 1,6,-1
 98.4453125 287.5 l 1,7,-1
 98.4453125 87.5 l 1,8,-1
 76.794921875 75 l 1,9,-1
 55.14453125 87.5 l 1,10,-1
 55.14453125 312.5 l 1,11,-1
 250 425 l 1,0,-1
76.794921875 325 m 1,12,-1
 444.853515625 112.5 l 1,13,-1
 444.853515625 87.5 l 1,14,-1
 423.204101562 75 l 1,15,-1
 55.14453125 287.5 l 1,16,-1
 55.14453125 312.5 l 1,17,-1
 76.794921875 325 l 1,12,-1
EndSplineSet
EndChar

StartChar: b
Encoding: 98 98 25
Width: 500
GlyphClass: 2
Flags: W
AnchorPoint: "vowel" 250 200 basechar 0
LayerCount: 2
Fore
SplineSet
250 425 m 1,0,-1
 444.85546875 312.5 l 1,1,-1
 444.85546875 287.5 l 1,2,-1
 423.205078125 275 l 1,3,-1
 250 375 l 1,4,-1
 98.4453125 287.5 l 1,5,-1
 98.4453125 112.5 l 1,6,-1
 250 25 l 1,7,-1
 423.205078125 125 l 1,8,-1
 444.85546875 112.5 l 1,9,-1
 444.85546875 87.5 l 1,10,-1
 250 -25 l 1,11,-1
 55.14453125 87.5 l 1,12,-1
 55.14453125 312.5 l 1,13,-1
 250 425 l 1,0,-1
76.794921875 325 m 1,14,-1
 444.853515625 112.5 l 1,15,-1
 444.853515625 87.5 l 1,16,-1
 423.204101562 75 l 1,17,-1
 55.14453125 287.5 l 1,18,-1
 55.14453125 312.5 l 1,19,-1
 76.794921875 325 l 1,14,-1
EndSplineSet
EndChar

StartChar: t
Encoding: 116 116 26
Width: 500
GlyphClass: 2
Flags: W
AnchorPoint: "vowel" 250 200 basechar 0
LayerCount: 2
Fore
SplineSet
444.856445312 312.5 m 1,0,-1
 444.856445312 87.5 l 1,1,-1
 250 -25 l 1,2,-1
 55.14453125 87.5 l 1,3,-1
 55.14453125 312.5 l 1,4,-1
 76.794921875 325 l 1,5,-1
 98.4462890625 312.5 l 1,6,-1
 98.4462890625 112.5 l 1,7,-1
 250 25 l 1,8,-1
 401.5546875 112.5 l 1,9,-1
 401.5546875 312.5 l 1,10,-1
 423.206054688 325 l 1,11,-1
 444.856445312 312.5 l 1,0,-1
EndSplineSet
EndChar

StartChar: grave
Encoding: 96 96 27
Width: 500
GlyphClass: 2
Flags: W
LayerCount: 2
Fore
SplineSet
76.794921875 225 m 1,0,-1
 98.4453125 212.5 l 1,1,-1
 98.4453125 187.5 l 1,2,-1
 76.794921875 175 l 1,3,-1
 55.14453125 187.5 l 1,4,-1
 55.14453125 212.5 l 1,5,-1
 76.794921875 225 l 1,0,-1
250 25 m 1,6,-1
 271.650390625 12.5 l 1,7,-1
 271.650390625 -12.5 l 1,8,-1
 250 -25 l 1,9,-1
 228.349609375 -12.5 l 1,10,-1
 228.349609375 12.5 l 1,11,-1
 250 25 l 1,6,-1
EndSplineSet
EndChar

StartChar: H
Encoding: 72 72 28
Width: 500
GlyphClass: 2
Flags: W
AnchorPoint: "vowel" 250 200 basechar 0
LayerCount: 2
Fore
SplineSet
228.349609375 -12.5 m 1,0,-1
 228.348632812 12.5 l 1,1,-1
 401.553710938 112.5 l 1,2,-1
 401.553710938 287.5 l 1,3,-1
 250 375 l 1,4,-1
 76.7939453125 275 l 1,5,-1
 55.1435546875 287.5 l 1,6,-1
 55.1435546875 312.5 l 1,7,-1
 250 425 l 1,8,-1
 444.856445312 312.5 l 1,9,-1
 444.856445312 87.5 l 1,10,-1
 250 -25 l 1,11,-1
 228.349609375 -12.5 l 1,0,-1
EndSplineSet
EndChar

StartChar: braceleft
Encoding: 123 123 29
Width: 500
GlyphClass: 1
Flags: W
LayerCount: 2
Fore
SplineSet
336.603515625 525 m 1,0,-1
 358.25390625 512.5 l 1,1,-1
 358.25390625 487.501953125 l 1,2,-1
 271.650390625 437.5 l 1,3,-1
 271.650390625 237.5 l 1,4,-1
 206.697265625 200 l 1,5,-1
 271.650390625 162.5 l 1,6,-1
 271.650390625 -37.5 l 1,7,-1
 358.25390625 -87.501953125 l 1,8,-1
 358.25390625 -112.5 l 1,9,-1
 336.603515625 -125 l 1,10,-1
 228.349609375 -62.5 l 1,11,-1
 228.349609375 137.5 l 1,12,-1
 163.3984375 175 l 1,13,-1
 163.396484375 175 l 1,14,-1
 141.74609375 187.5 l 1,15,-1
 141.74609375 212.5 l 1,16,-1
 163.396484375 225 l 1,17,-1
 163.3984375 225 l 1,18,-1
 228.349609375 262.5 l 1,19,-1
 228.349609375 462.5 l 1,20,-1
 336.603515625 525 l 1,0,-1
EndSplineSet
EndChar

StartChar: o
Encoding: 111 111 30
Width: 0
VWidth: 894
GlyphClass: 4
Flags: W
AnchorPoint: "vowel" -250 200 mark 0
LayerCount: 2
Fore
SplineSet
-250 25 m 1,0,-1
 -228.349609375 12.5 l 1,1,-1
 -76.794921875 -75 l 1,2,-1
 -55.14453125 -87.5 l 1,3,-1
 -55.14453125 -112.5 l 1,4,-1
 -76.794921875 -125 l 1,5,-1
 -250 -225 l 1,6,-1
 -444.85546875 -112.5 l 1,7,-1
 -444.85546875 -87.5 l 1,8,-1
 -423.205078125 -75 l 1,9,-1
 -401.5546875 -87.5 l 1,10,-1
 -250 -175 l 1,11,-1
 -120.095703125 -100 l 1,12,-1
 -250 -25 l 1,13,-1
 -271.650390625 -12.5 l 1,14,-1
 -271.650390625 12.5 l 1,15,-1
 -250 25 l 1,0,-1
EndSplineSet
EndChar

StartChar: bar
Encoding: 124 124 31
Width: 500
GlyphClass: 1
Flags: W
LayerCount: 2
Fore
SplineSet
271.650390625 612.5 m 1,0,-1
 271.650390625 -212.5 l 1,1,-1
 250 -225 l 1,2,-1
 228.349609375 -212.5 l 1,3,-1
 228.349609375 612.5 l 1,4,-1
 250 625 l 1,5,-1
 271.650390625 612.5 l 1,0,-1
EndSplineSet
EndChar

StartChar: I
Encoding: 73 73 32
Width: 0
VWidth: 894
GlyphClass: 4
Flags: W
AnchorPoint: "vowel" -250 200 mark 0
LayerCount: 2
Fore
SplineSet
-250 625 m 1,0,-1
 -55.14453125 512.5 l 1,1,-1
 -55.14453125 487.5 l 1,2,-1
 -76.794921875 475 l 1,3,-1
 -98.4453125 487.5 l 1,4,-1
 -250 575 l 1,5,-1
 -401.5546875 487.5 l 1,6,-1
 -423.205078125 475 l 1,7,-1
 -444.85546875 487.5 l 1,8,-1
 -444.85546875 512.5 l 1,9,-1
 -250 625 l 1,0,-1
EndSplineSet
EndChar

StartChar: a
Encoding: 97 97 33
Width: 0
VWidth: 894
GlyphClass: 4
Flags: W
AnchorPoint: "vowel" -250 200 mark 0
LayerCount: 2
Fore
SplineSet
-250 625 m 1,0,-1
 -55.14453125 512.5 l 1,1,-1
 -55.14453125 487.5 l 1,2,-1
 -76.794921875 475 l 1,3,-1
 -98.4453125 487.5 l 1,4,-1
 -250 575 l 1,5,-1
 -379.904296875 500 l 1,6,-1
 -250 425 l 1,7,-1
 -228.349609375 412.5 l 1,8,-1
 -228.349609375 387.5 l 1,9,-1
 -250 375 l 1,10,-1
 -271.650390625 387.5 l 1,11,-1
 -423.205078125 475 l 1,12,-1
 -444.85546875 487.5 l 1,13,-1
 -444.85546875 512.5 l 1,14,-1
 -423.205078125 525 l 1,15,-1
 -250 625 l 1,0,-1
EndSplineSet
EndChar

StartChar: u
Encoding: 117 117 34
Width: 0
VWidth: 894
GlyphClass: 4
Flags: W
AnchorPoint: "vowel" -250 200 mark 0
LayerCount: 2
Fore
SplineSet
-250 25 m 1,0,-1
 -228.349609375 12.5 l 1,1,-1
 -55.14453125 -87.5 l 1,2,-1
 -55.14453125 -112.5 l 1,3,-1
 -76.794921875 -125 l 1,4,-1
 -98.4453125 -112.5 l 1,5,-1
 -250 -25 l 1,6,-1
 -271.650390625 -12.5 l 1,7,-1
 -271.650390625 12.5 l 1,8,-1
 -250 25 l 1,0,-1
EndSplineSet
EndChar

StartChar: underscore
Encoding: 95 95 35
Width: 500
GlyphClass: 1
Flags: W
LayerCount: 2
Fore
SplineSet
76.794921875 25 m 1,0,-1
 423.205078125 25 l 1,1,-1
 444.85546875 12.5 l 1,2,-1
 444.85546875 -12.5 l 1,3,-1
 423.205078125 -25 l 1,4,-1
 76.794921875 -25 l 1,5,-1
 55.14453125 -12.5 l 1,6,-1
 55.14453125 12.5 l 1,7,-1
 76.794921875 25 l 1,0,-1
EndSplineSet
EndChar

StartChar: K
Encoding: 75 75 36
Width: 500
GlyphClass: 2
Flags: W
AnchorPoint: "vowel" 250 200 basechar 0
LayerCount: 2
Fore
SplineSet
250 425 m 1,0,-1
 444.85546875 312.5 l 1,1,-1
 444.85546875 87.5 l 1,2,-1
 250 -25 l 1,3,-1
 55.14453125 87.5 l 1,4,-1
 55.14453125 112.5 l 1,5,-1
 76.794921875 125 l 1,6,-1
 250 25 l 1,7,-1
 401.5546875 112.5 l 1,8,-1
 401.5546875 287.5 l 1,9,-1
 228.349609375 387.5 l 1,10,-1
 228.349609375 412.5 l 1,11,-1
 250 425 l 1,0,-1
EndSplineSet
EndChar

StartChar: x
Encoding: 120 120 37
Width: 500
GlyphClass: 2
Flags: W
AnchorPoint: "vowel" 250 200 basechar 0
LayerCount: 2
Fore
SplineSet
228.349609375 -12.5 m 1,0,-1
 228.348632812 12.5 l 1,1,-1
 401.553710938 112.5 l 1,2,-1
 401.553710938 287.5 l 1,3,-1
 250 375 l 1,4,-1
 76.7939453125 275 l 1,5,-1
 55.1435546875 287.5 l 1,6,-1
 55.1435546875 312.5 l 1,7,-1
 250 425 l 1,8,-1
 444.856445312 312.5 l 1,9,-1
 444.856445312 87.5 l 1,10,-1
 250 -25 l 1,11,-1
 228.349609375 -12.5 l 1,0,-1
76.794921875 325 m 1,12,-1
 444.853515625 112.5 l 1,13,-1
 444.853515625 87.5 l 1,14,-1
 423.204101562 75 l 1,15,-1
 55.14453125 287.5 l 1,16,-1
 55.14453125 312.5 l 1,17,-1
 76.794921875 325 l 1,12,-1
EndSplineSet
EndChar

StartChar: P
Encoding: 80 80 38
Width: 500
GlyphClass: 2
Flags: W
AnchorPoint: "vowel" 250 200 basechar 0
LayerCount: 2
Fore
SplineSet
250 425 m 1,0,-1
 444.85546875 312.5 l 1,1,-1
 444.85546875 287.5 l 1,2,-1
 423.205078125 275 l 1,3,-1
 250 375 l 1,4,-1
 98.4453125 287.5 l 1,5,-1
 98.4453125 112.5 l 1,6,-1
 250 25 l 1,7,-1
 423.205078125 125 l 1,8,-1
 444.85546875 112.5 l 1,9,-1
 444.85546875 87.5 l 1,10,-1
 250 -25 l 1,11,-1
 55.14453125 87.5 l 1,12,-1
 55.14453125 312.5 l 1,13,-1
 250 425 l 1,0,-1
EndSplineSet
EndChar

StartChar: D
Encoding: 68 68 39
Width: 500
GlyphClass: 2
Flags: W
AnchorPoint: "vowel" 250 200 basechar 0
LayerCount: 2
Fore
SplineSet
444.856445312 312.5 m 1,0,-1
 444.856445312 87.5 l 1,1,-1
 250 -25 l 1,2,-1
 55.14453125 87.5 l 1,3,-1
 55.14453125 312.5 l 1,4,-1
 76.794921875 325 l 1,5,-1
 98.4462890625 312.5 l 1,6,-1
 98.4462890625 112.5 l 1,7,-1
 250 25 l 1,8,-1
 401.5546875 112.5 l 1,9,-1
 401.5546875 312.5 l 1,10,-1
 423.206054688 325 l 1,11,-1
 444.856445312 312.5 l 1,0,-1
76.794921875 325 m 1,12,-1
 444.853515625 112.5 l 1,13,-1
 444.853515625 87.5 l 1,14,-1
 423.204101562 75 l 1,15,-1
 55.14453125 287.5 l 1,16,-1
 55.14453125 312.5 l 1,17,-1
 76.794921875 325 l 1,12,-1
EndSplineSet
EndChar

StartChar: E
Encoding: 69 69 40
Width: 0
VWidth: 894
GlyphClass: 4
Flags: W
AnchorPoint: "vowel" -250 200 mark 0
LayerCount: 2
Fore
SplineSet
-423.205078125 525 m 1,0,-1
 -401.5546875 512.5 l 1,1,-1
 -250 425 l 1,2,-1
 -228.349609375 412.5 l 1,3,-1
 -228.349609375 387.5 l 1,4,-1
 -250 375 l 1,5,-1
 -271.650390625 387.5 l 1,6,-1
 -444.85546875 487.5 l 1,7,-1
 -444.85546875 512.5 l 1,8,-1
 -423.205078125 525 l 1,0,-1
EndSplineSet
EndChar

StartChar: Q
Encoding: 81 81 41
Width: 500
GlyphClass: 2
Flags: W
AnchorPoint: "vowel" 250 200 basechar 0
LayerCount: 2
Fore
SplineSet
250 -25 m 1,0,-1
 55.14453125 87.5 l 1,1,-1
 55.14453125 112.5 l 1,2,-1
 76.794921875 125 l 1,3,-1
 250 25 l 1,4,-1
 401.5546875 112.5 l 1,5,-1
 401.5546875 287.5 l 1,6,-1
 250 375 l 1,7,-1
 76.794921875 275 l 1,8,-1
 55.14453125 287.5 l 1,9,-1
 55.14453125 312.5 l 1,10,-1
 250 425 l 1,11,-1
 444.85546875 312.5 l 1,12,-1
 444.85546875 87.5 l 1,13,-1
 250 -25 l 1,0,-1
EndSplineSet
EndChar

StartChar: y
Encoding: 121 121 42
Width: 500
GlyphClass: 2
Flags: W
AnchorPoint: "vowel" 250 200 basechar 0
LayerCount: 2
Fore
SplineSet
250 -25 m 1,0,-1
 55.14453125 87.5 l 1,1,-1
 55.14453125 112.5 l 1,2,-1
 76.794921875 125 l 1,3,-1
 250 25 l 1,4,-1
 401.5546875 112.5 l 1,5,-1
 401.5546875 287.5 l 1,6,-1
 250 375 l 1,7,-1
 76.794921875 275 l 1,8,-1
 55.14453125 287.5 l 1,9,-1
 55.14453125 312.5 l 1,10,-1
 250 425 l 1,11,-1
 444.85546875 312.5 l 1,12,-1
 444.85546875 87.5 l 1,13,-1
 250 -25 l 1,0,-1
76.794921875 325 m 1,14,-1
 444.853515625 112.5 l 1,15,-1
 444.853515625 87.5 l 1,16,-1
 423.204101562 75 l 1,17,-1
 55.14453125 287.5 l 1,18,-1
 55.14453125 312.5 l 1,19,-1
 76.794921875 325 l 1,14,-1
250 325 m 1,20,-1
 358.25390625 262.5 l 1,21,-1
 358.25390625 137.5 l 1,22,-1
 250 75 l 1,23,-1
 141.74609375 137.5 l 1,24,-1
 141.74609375 262.5 l 1,25,-1
 250 325 l 1,20,-1
250 275 m 1,26,-1
 185.048828125 237.5 l 1,27,-1
 185.048828125 162.5 l 1,28,-1
 250 125 l 1,29,-1
 314.951171875 162.5 l 1,30,-1
 314.951171875 237.5 l 1,31,-1
 250 275 l 1,26,-1
EndSplineSet
EndChar

StartChar: L
Encoding: 76 76 43
Width: 500
GlyphClass: 2
Flags: W
AnchorPoint: "vowel" 250 200 basechar 0
LayerCount: 2
Fore
SplineSet
250 425 m 1,0,-1
 423.205078125 325 l 1,1,-1
 444.85546875 312.5 l 1,2,-1
 444.85546875 87.5 l 1,3,-1
 423.205078125 75 l 1,4,-1
 250 -25 l 1,5,-1
 76.794921875 75 l 1,6,-1
 55.14453125 87.5 l 1,7,-1
 55.14453125 312.5 l 1,8,-1
 76.794921875 325 l 1,9,-1
 250 425 l 1,0,-1
250 375 m 1,10,-1
 98.4453125 287.5 l 1,11,-1
 98.4453125 112.5 l 1,12,-1
 250 25 l 1,13,-1
 401.5546875 112.5 l 1,14,-1
 401.5546875 287.5 l 1,15,-1
 250 375 l 1,10,-1
76.794921875 325 m 1,16,-1
 444.853515625 112.5 l 1,17,-1
 444.853515625 87.5 l 1,18,-1
 423.204101562 75 l 1,19,-1
 55.14453125 287.5 l 1,20,-1
 55.14453125 312.5 l 1,21,-1
 76.794921875 325 l 1,16,-1
EndSplineSet
EndChar

StartChar: J
Encoding: 74 74 44
Width: 500
GlyphClass: 2
Flags: W
AnchorPoint: "vowel" 250 200 basechar 0
LayerCount: 2
Fore
SplineSet
444.856445312 87.5 m 1,0,-1
 250 -25 l 1,1,-1
 55.1435546875 87.5 l 1,2,-1
 55.1435546875 312.5 l 1,3,-1
 250 425 l 1,4,-1
 271.650390625 412.5 l 1,5,-1
 271.650390625 387.5 l 1,6,-1
 98.4453125 287.5 l 1,7,-1
 98.4453125 112.5 l 1,8,-1
 250 25 l 1,9,-1
 423.205078125 125 l 1,10,-1
 444.856445312 112.5 l 1,11,-1
 444.856445312 87.5 l 1,0,-1
76.794921875 325 m 1,12,-1
 444.853515625 112.5 l 1,13,-1
 444.853515625 87.5 l 1,14,-1
 423.204101562 75 l 1,15,-1
 55.14453125 287.5 l 1,16,-1
 55.14453125 312.5 l 1,17,-1
 76.794921875 325 l 1,12,-1
250 325 m 1,18,-1
 358.25390625 262.5 l 1,19,-1
 358.25390625 137.5 l 1,20,-1
 250 75 l 1,21,-1
 141.74609375 137.5 l 1,22,-1
 141.74609375 262.5 l 1,23,-1
 250 325 l 1,18,-1
250 275 m 1,24,-1
 185.048828125 237.5 l 1,25,-1
 185.048828125 162.5 l 1,26,-1
 250 125 l 1,27,-1
 314.951171875 162.5 l 1,28,-1
 314.951171875 237.5 l 1,29,-1
 250 275 l 1,24,-1
EndSplineSet
EndChar

StartChar: asciicircum
Encoding: 94 94 45
Width: 500
GlyphClass: 1
Flags: W
LayerCount: 2
Fore
SplineSet
250 425 m 1,0,-1
 271.650390625 412.5 l 1,1,-1
 271.650390625 387.5 l 1,2,-1
 250 375 l 1,3,-1
 228.349609375 387.5 l 1,4,-1
 228.349609375 412.5 l 1,5,-1
 250 425 l 1,0,-1
76.794921875 225 m 1,6,-1
 98.4453125 212.5 l 1,7,-1
 98.4453125 187.5 l 1,8,-1
 76.794921875 175 l 1,9,-1
 55.14453125 187.5 l 1,10,-1
 55.14453125 212.5 l 1,11,-1
 76.794921875 225 l 1,6,-1
423.205078125 225 m 1,12,-1
 444.85546875 212.5 l 1,13,-1
 444.85546875 187.5 l 1,14,-1
 423.205078125 175 l 1,15,-1
 401.5546875 187.5 l 1,16,-1
 401.5546875 212.5 l 1,17,-1
 423.205078125 225 l 1,12,-1
EndSplineSet
EndChar

StartChar: G
Encoding: 71 71 46
Width: 500
GlyphClass: 2
Flags: W
AnchorPoint: "vowel" 250 200 basechar 0
LayerCount: 2
Fore
SplineSet
250 425 m 1,0,-1
 444.85546875 312.5 l 1,1,-1
 444.85546875 87.5 l 1,2,-1
 250 -25 l 1,3,-1
 55.14453125 87.5 l 1,4,-1
 55.14453125 112.5 l 1,5,-1
 76.794921875 125 l 1,6,-1
 250 25 l 1,7,-1
 401.5546875 112.5 l 1,8,-1
 401.5546875 287.5 l 1,9,-1
 228.349609375 387.5 l 1,10,-1
 228.349609375 412.5 l 1,11,-1
 250 425 l 1,0,-1
76.794921875 325 m 1,12,-1
 444.853515625 112.5 l 1,13,-1
 444.853515625 87.5 l 1,14,-1
 423.204101562 75 l 1,15,-1
 55.14453125 287.5 l 1,16,-1
 55.14453125 312.5 l 1,17,-1
 76.794921875 325 l 1,12,-1
EndSplineSet
EndChar

StartChar: S
Encoding: 83 83 47
Width: 500
GlyphClass: 2
Flags: W
AnchorPoint: "vowel" 250 200 basechar 0
LayerCount: 2
Fore
SplineSet
444.856445312 87.5 m 1,0,-1
 250 -25 l 1,1,-1
 55.1435546875 87.5 l 1,2,-1
 55.1435546875 312.5 l 1,3,-1
 250 425 l 1,4,-1
 271.650390625 412.5 l 1,5,-1
 271.650390625 387.5 l 1,6,-1
 98.4453125 287.5 l 1,7,-1
 98.4453125 112.5 l 1,8,-1
 250 25 l 1,9,-1
 423.205078125 125 l 1,10,-1
 444.856445312 112.5 l 1,11,-1
 444.856445312 87.5 l 1,0,-1
EndSplineSet
EndChar

StartChar: R
Encoding: 82 82 48
Width: 500
GlyphClass: 2
Flags: W
AnchorPoint: "vowel" 250 200 basechar 0
LayerCount: 2
Fore
SplineSet
250 425 m 1,0,-1
 423.205078125 325 l 1,1,-1
 444.85546875 312.5 l 1,2,-1
 444.85546875 87.5 l 1,3,-1
 423.205078125 75 l 1,4,-1
 250 -25 l 1,5,-1
 76.794921875 75 l 1,6,-1
 55.14453125 87.5 l 1,7,-1
 55.14453125 312.5 l 1,8,-1
 76.794921875 325 l 1,9,-1
 250 425 l 1,0,-1
250 375 m 1,10,-1
 98.4453125 287.5 l 1,11,-1
 98.4453125 112.5 l 1,12,-1
 250 25 l 1,13,-1
 401.5546875 112.5 l 1,14,-1
 401.5546875 287.5 l 1,15,-1
 250 375 l 1,10,-1
EndSplineSet
EndChar

StartChar: F
Encoding: 70 70 49
Width: 500
GlyphClass: 2
Flags: W
AnchorPoint: "vowel" 250 200 basechar 0
LayerCount: 2
Fore
SplineSet
250 425 m 1,0,-1
 444.85546875 312.5 l 1,1,-1
 444.85546875 87.5 l 1,2,-1
 423.205078125 75 l 1,3,-1
 401.5546875 87.5 l 1,4,-1
 401.5546875 287.5 l 1,5,-1
 250 375 l 1,6,-1
 98.4453125 287.5 l 1,7,-1
 98.4453125 87.5 l 1,8,-1
 76.794921875 75 l 1,9,-1
 55.14453125 87.5 l 1,10,-1
 55.14453125 312.5 l 1,11,-1
 250 425 l 1,0,-1
EndSplineSet
EndChar

StartChar: bracketright
Encoding: 93 93 50
Width: 500
GlyphClass: 1
Flags: W
LayerCount: 2
Fore
SplineSet
250 525 m 1,0,-1
 358.25390625 462.5 l 1,1,-1
 358.25390625 -62.5 l 1,2,-1
 250 -125 l 1,3,-1
 141.74609375 -62.5 l 1,4,-1
 141.74609375 -37.5 l 1,5,-1
 163.396484375 -25 l 1,6,-1
 250 -75 l 1,7,-1
 314.951171875 -37.5 l 1,8,-1
 314.951171875 437.5 l 1,9,-1
 250 475 l 1,10,-1
 163.396484375 425 l 1,11,-1
 141.74609375 437.5 l 1,12,-1
 141.74609375 462.5 l 1,13,-1
 250 525 l 1,0,-1
EndSplineSet
EndChar

StartChar: B
Encoding: 66 66 51
Width: 500
GlyphClass: 2
Flags: W
AnchorPoint: "vowel" 250 200 basechar 0
LayerCount: 2
Fore
SplineSet
250 425 m 1,0,-1
 444.85546875 312.5 l 1,1,-1
 444.85546875 287.5 l 1,2,-1
 423.205078125 275 l 1,3,-1
 250 375 l 1,4,-1
 98.4453125 287.5 l 1,5,-1
 98.4453125 112.5 l 1,6,-1
 250 25 l 1,7,-1
 423.205078125 125 l 1,8,-1
 444.85546875 112.5 l 1,9,-1
 444.85546875 87.5 l 1,10,-1
 250 -25 l 1,11,-1
 55.14453125 87.5 l 1,12,-1
 55.14453125 312.5 l 1,13,-1
 250 425 l 1,0,-1
76.794921875 325 m 1,14,-1
 444.853515625 112.5 l 1,15,-1
 444.853515625 87.5 l 1,16,-1
 423.204101562 75 l 1,17,-1
 55.14453125 287.5 l 1,18,-1
 55.14453125 312.5 l 1,19,-1
 76.794921875 325 l 1,14,-1
EndSplineSet
EndChar

StartChar: V
Encoding: 86 86 52
Width: 500
GlyphClass: 2
Flags: W
AnchorPoint: "vowel" 250 200 basechar 0
LayerCount: 2
Fore
SplineSet
250 425 m 1,0,-1
 444.85546875 312.5 l 1,1,-1
 444.85546875 87.5 l 1,2,-1
 423.205078125 75 l 1,3,-1
 401.5546875 87.5 l 1,4,-1
 401.5546875 287.5 l 1,5,-1
 250 375 l 1,6,-1
 98.4453125 287.5 l 1,7,-1
 98.4453125 87.5 l 1,8,-1
 76.794921875 75 l 1,9,-1
 55.14453125 87.5 l 1,10,-1
 55.14453125 312.5 l 1,11,-1
 250 425 l 1,0,-1
76.794921875 325 m 1,12,-1
 444.853515625 112.5 l 1,13,-1
 444.853515625 87.5 l 1,14,-1
 423.204101562 75 l 1,15,-1
 55.14453125 287.5 l 1,16,-1
 55.14453125 312.5 l 1,17,-1
 76.794921875 325 l 1,12,-1
EndSplineSet
EndChar

StartChar: M
Encoding: 77 77 53
Width: 500
GlyphClass: 2
Flags: W
AnchorPoint: "vowel" 250 200 basechar 0
LayerCount: 2
Fore
SplineSet
250 425 m 1,0,-1
 444.85546875 312.5 l 1,1,-1
 444.85546875 287.5 l 1,2,-1
 423.205078125 275 l 1,3,-1
 250 375 l 1,4,-1
 98.4453125 287.5 l 1,5,-1
 98.4453125 112.5 l 1,6,-1
 271.650390625 12.5 l 1,7,-1
 271.650390625 -12.5 l 1,8,-1
 250 -25 l 1,9,-1
 55.14453125 87.5 l 1,10,-1
 55.14453125 312.5 l 1,11,-1
 250 425 l 1,0,-1
EndSplineSet
EndChar

StartChar: Z
Encoding: 90 90 54
Width: 500
GlyphClass: 2
Flags: W
AnchorPoint: "vowel" 250 200 basechar 0
LayerCount: 2
Fore
SplineSet
444.856445312 87.5 m 1,0,-1
 250 -25 l 1,1,-1
 55.1435546875 87.5 l 1,2,-1
 55.1435546875 312.5 l 1,3,-1
 250 425 l 1,4,-1
 271.650390625 412.5 l 1,5,-1
 271.650390625 387.5 l 1,6,-1
 98.4453125 287.5 l 1,7,-1
 98.4453125 112.5 l 1,8,-1
 250 25 l 1,9,-1
 423.205078125 125 l 1,10,-1
 444.856445312 112.5 l 1,11,-1
 444.856445312 87.5 l 1,0,-1
76.794921875 325 m 1,12,-1
 444.853515625 112.5 l 1,13,-1
 444.853515625 87.5 l 1,14,-1
 423.204101562 75 l 1,15,-1
 55.14453125 287.5 l 1,16,-1
 55.14453125 312.5 l 1,17,-1
 76.794921875 325 l 1,12,-1
EndSplineSet
EndChar

StartChar: N
Encoding: 78 78 55
Width: 500
GlyphClass: 2
Flags: W
AnchorPoint: "vowel" 250 200 basechar 0
LayerCount: 2
Fore
SplineSet
250 425 m 1,0,-1
 444.85546875 312.5 l 1,1,-1
 444.85546875 287.5 l 1,2,-1
 423.205078125 275 l 1,3,-1
 250 375 l 1,4,-1
 98.4453125 287.5 l 1,5,-1
 98.4453125 112.5 l 1,6,-1
 271.650390625 12.5 l 1,7,-1
 271.650390625 -12.5 l 1,8,-1
 250 -25 l 1,9,-1
 55.14453125 87.5 l 1,10,-1
 55.14453125 312.5 l 1,11,-1
 250 425 l 1,0,-1
76.794921875 325 m 1,12,-1
 444.853515625 112.5 l 1,13,-1
 444.853515625 87.5 l 1,14,-1
 423.204101562 75 l 1,15,-1
 55.14453125 287.5 l 1,16,-1
 55.14453125 312.5 l 1,17,-1
 76.794921875 325 l 1,12,-1
EndSplineSet
EndChar

StartChar: W
Encoding: 87 87 56
Width: 0
VWidth: 894
GlyphClass: 4
Flags: W
AnchorPoint: "vowel" -250 200 mark 0
LayerCount: 2
Fore
SplineSet
-423.205078125 -75 m 1,0,-1
 -401.5546875 -87.5 l 1,1,-1
 -250 -175 l 1,2,-1
 -98.4453125 -87.5 l 1,3,-1
 -76.794921875 -75 l 1,4,-1
 -55.14453125 -87.5 l 1,5,-1
 -55.14453125 -112.5 l 1,6,-1
 -250 -225 l 1,7,-1
 -444.85546875 -112.5 l 1,8,-1
 -444.85546875 -87.5 l 1,9,-1
 -423.205078125 -75 l 1,0,-1
EndSplineSet
EndChar

StartChar: C
Encoding: 67 67 57
Width: 500
GlyphClass: 2
Flags: W
AnchorPoint: "vowel" 250 200 basechar 0
LayerCount: 2
Fore
SplineSet
250 -25 m 1,0,-1
 55.14453125 87.5 l 1,1,-1
 55.14453125 112.5 l 1,2,-1
 76.794921875 125 l 1,3,-1
 250 25 l 1,4,-1
 401.5546875 112.5 l 1,5,-1
 401.5546875 287.5 l 1,6,-1
 250 375 l 1,7,-1
 76.794921875 275 l 1,8,-1
 55.14453125 287.5 l 1,9,-1
 55.14453125 312.5 l 1,10,-1
 250 425 l 1,11,-1
 444.85546875 312.5 l 1,12,-1
 444.85546875 87.5 l 1,13,-1
 250 -25 l 1,0,-1
76.794921875 325 m 1,14,-1
 444.853515625 112.5 l 1,15,-1
 444.853515625 87.5 l 1,16,-1
 423.204101562 75 l 1,17,-1
 55.14453125 287.5 l 1,18,-1
 55.14453125 312.5 l 1,19,-1
 76.794921875 325 l 1,14,-1
EndSplineSet
EndChar

StartChar: U
Encoding: 85 85 58
Width: 0
VWidth: 894
GlyphClass: 4
Flags: W
AnchorPoint: "vowel" -250 200 mark 0
LayerCount: 2
Fore
SplineSet
-250 25 m 1,0,-1
 -228.349609375 12.5 l 1,1,-1
 -55.14453125 -87.5 l 1,2,-1
 -55.14453125 -112.5 l 1,3,-1
 -76.794921875 -125 l 1,4,-1
 -98.4453125 -112.5 l 1,5,-1
 -250 -25 l 1,6,-1
 -271.650390625 -12.5 l 1,7,-1
 -271.650390625 12.5 l 1,8,-1
 -250 25 l 1,0,-1
EndSplineSet
EndChar

StartChar: A
Encoding: 65 65 59
Width: 0
VWidth: 894
GlyphClass: 4
Flags: W
AnchorPoint: "vowel" -250 200 mark 0
LayerCount: 2
Fore
SplineSet
-250 625 m 1,0,-1
 -55.14453125 512.5 l 1,1,-1
 -55.14453125 487.5 l 1,2,-1
 -76.794921875 475 l 1,3,-1
 -98.4453125 487.5 l 1,4,-1
 -250 575 l 1,5,-1
 -379.904296875 500 l 1,6,-1
 -250 425 l 1,7,-1
 -228.349609375 412.5 l 1,8,-1
 -228.349609375 387.5 l 1,9,-1
 -250 375 l 1,10,-1
 -271.650390625 387.5 l 1,11,-1
 -423.205078125 475 l 1,12,-1
 -444.85546875 487.5 l 1,13,-1
 -444.85546875 512.5 l 1,14,-1
 -423.205078125 525 l 1,15,-1
 -250 625 l 1,0,-1
EndSplineSet
EndChar

StartChar: i
Encoding: 105 105 60
Width: 0
VWidth: 894
GlyphClass: 4
Flags: W
AnchorPoint: "vowel" -250 200 mark 0
LayerCount: 2
Fore
SplineSet
-250 625 m 1,0,-1
 -55.14453125 512.5 l 1,1,-1
 -55.14453125 487.5 l 1,2,-1
 -76.794921875 475 l 1,3,-1
 -98.4453125 487.5 l 1,4,-1
 -250 575 l 1,5,-1
 -401.5546875 487.5 l 1,6,-1
 -423.205078125 475 l 1,7,-1
 -444.85546875 487.5 l 1,8,-1
 -444.85546875 512.5 l 1,9,-1
 -250 625 l 1,0,-1
EndSplineSet
EndChar

StartChar: backslash
Encoding: 92 92 61
Width: 500
GlyphClass: 1
Flags: W
LayerCount: 2
Fore
SplineSet
76.794921875 325 m 1,0,-1
 444.853515625 112.5 l 1,1,-1
 444.853515625 87.5 l 1,2,-1
 423.204101562 75 l 1,3,-1
 55.14453125 287.5 l 1,4,-1
 55.14453125 312.5 l 1,5,-1
 76.794921875 325 l 1,0,-1
EndSplineSet
EndChar

StartChar: O
Encoding: 79 79 62
Width: 0
VWidth: 894
GlyphClass: 4
Flags: W
AnchorPoint: "vowel" -250 200 mark 0
LayerCount: 2
Fore
SplineSet
-250 25 m 1,0,-1
 -228.349609375 12.5 l 1,1,-1
 -76.794921875 -75 l 1,2,-1
 -55.14453125 -87.5 l 1,3,-1
 -55.14453125 -112.5 l 1,4,-1
 -76.794921875 -125 l 1,5,-1
 -250 -225 l 1,6,-1
 -444.85546875 -112.5 l 1,7,-1
 -444.85546875 -87.5 l 1,8,-1
 -423.205078125 -75 l 1,9,-1
 -401.5546875 -87.5 l 1,10,-1
 -250 -175 l 1,11,-1
 -120.095703125 -100 l 1,12,-1
 -250 -25 l 1,13,-1
 -271.650390625 -12.5 l 1,14,-1
 -271.650390625 12.5 l 1,15,-1
 -250 25 l 1,0,-1
EndSplineSet
EndChar

StartChar: bracketleft
Encoding: 91 91 63
Width: 500
GlyphClass: 1
Flags: W
LayerCount: 2
Fore
SplineSet
250 525 m 1,0,-1
 358.25390625 462.5 l 1,1,-1
 358.25390625 437.5 l 1,2,-1
 336.603515625 425 l 1,3,-1
 250 475 l 1,4,-1
 185.048828125 437.5 l 1,5,-1
 185.048828125 -37.5 l 1,6,-1
 250 -75 l 1,7,-1
 336.603515625 -25 l 1,8,-1
 358.25390625 -37.5 l 1,9,-1
 358.25390625 -62.5 l 1,10,-1
 250 -125 l 1,11,-1
 141.74609375 -62.5 l 1,12,-1
 141.74609375 462.5 l 1,13,-1
 250 525 l 1,0,-1
EndSplineSet
EndChar

StartChar: h
Encoding: 104 104 64
Width: 500
GlyphClass: 2
Flags: W
AnchorPoint: "vowel" 250 200 basechar 0
LayerCount: 2
Fore
SplineSet
228.349609375 -12.5 m 1,0,-1
 228.348632812 12.5 l 1,1,-1
 401.553710938 112.5 l 1,2,-1
 401.553710938 287.5 l 1,3,-1
 250 375 l 1,4,-1
 76.7939453125 275 l 1,5,-1
 55.1435546875 287.5 l 1,6,-1
 55.1435546875 312.5 l 1,7,-1
 250 425 l 1,8,-1
 444.856445312 312.5 l 1,9,-1
 444.856445312 87.5 l 1,10,-1
 250 -25 l 1,11,-1
 228.349609375 -12.5 l 1,0,-1
EndSplineSet
EndChar

StartChar: at
Encoding: 64 64 65
Width: 500
GlyphClass: 1
Flags: W
LayerCount: 2
Fore
SplineSet
250 425 m 1,0,-1
 423.205078125 325 l 1,1,-1
 444.85546875 312.5 l 1,2,-1
 444.85546875 87.5 l 1,3,-1
 423.205078125 75 l 1,4,-1
 250 -25 l 1,5,-1
 76.794921875 75 l 1,6,-1
 55.14453125 87.5 l 1,7,-1
 55.14453125 312.5 l 1,8,-1
 76.794921875 325 l 1,9,-1
 250 425 l 1,0,-1
250 375 m 1,10,-1
 98.4453125 287.5 l 1,11,-1
 98.4453125 112.5 l 1,12,-1
 250 25 l 1,13,-1
 401.5546875 112.5 l 1,14,-1
 401.5546875 287.5 l 1,15,-1
 250 375 l 1,10,-1
250 325 m 1,16,-1
 358.25390625 262.5 l 1,17,-1
 358.25390625 137.5 l 1,18,-1
 250 75 l 1,19,-1
 141.74609375 137.5 l 1,20,-1
 141.74609375 262.5 l 1,21,-1
 250 325 l 1,16,-1
250 275 m 1,22,-1
 185.048828125 237.5 l 1,23,-1
 185.048828125 162.5 l 1,24,-1
 250 125 l 1,25,-1
 314.951171875 162.5 l 1,26,-1
 314.951171875 237.5 l 1,27,-1
 250 275 l 1,22,-1
76.794921875 325 m 1,28,-1
 444.853515625 112.5 l 1,29,-1
 444.853515625 87.5 l 1,30,-1
 423.204101562 75 l 1,31,-1
 55.14453125 287.5 l 1,32,-1
 55.14453125 312.5 l 1,33,-1
 76.794921875 325 l 1,28,-1
EndSplineSet
EndChar

StartChar: T
Encoding: 84 84 66
Width: 500
GlyphClass: 2
Flags: W
AnchorPoint: "vowel" 250 200 basechar 0
LayerCount: 2
Fore
SplineSet
444.856445312 312.5 m 1,0,-1
 444.856445312 87.5 l 1,1,-1
 250 -25 l 1,2,-1
 55.14453125 87.5 l 1,3,-1
 55.14453125 312.5 l 1,4,-1
 76.794921875 325 l 1,5,-1
 98.4462890625 312.5 l 1,6,-1
 98.4462890625 112.5 l 1,7,-1
 250 25 l 1,8,-1
 401.5546875 112.5 l 1,9,-1
 401.5546875 312.5 l 1,10,-1
 423.206054688 325 l 1,11,-1
 444.856445312 312.5 l 1,0,-1
EndSplineSet
EndChar

StartChar: greater
Encoding: 62 62 67
Width: 500
GlyphClass: 1
Flags: W
LayerCount: 2
Fore
SplineSet
250 75 m 1,0,-1
 141.74609375 137.5 l 1,1,-1
 141.74609375 162.5 l 1,2,-1
 163.396484375 175 l 1,3,-1
 250 125 l 1,4,-1
 314.951171875 162.5 l 1,5,-1
 314.951171875 237.5 l 1,6,-1
 250 275 l 1,7,-1
 163.396484375 225 l 1,8,-1
 141.74609375 237.5 l 1,9,-1
 141.74609375 262.5 l 1,10,-1
 250 325 l 1,11,-1
 358.25390625 262.5 l 1,12,-1
 358.25390625 137.5 l 1,13,-1
 250 75 l 1,0,-1
EndSplineSet
EndChar

StartChar: asterisk
Encoding: 42 42 68
Width: 500
GlyphClass: 1
Flags: W
LayerCount: 2
Fore
SplineSet
423.205078125 325 m 1,0,-1
 444.85546875 312.5 l 1,1,-1
 444.85546875 287.5 l 1,2,-1
 76.7958984375 75 l 1,3,-1
 55.146484375 87.5 l 1,4,-1
 55.146484375 112.5 l 1,5,-1
 423.205078125 325 l 1,0,-1
228.349609375 412.5 m 1,6,-1
 250 425 l 1,7,-1
 271.650390625 412.5 l 1,8,-1
 271.651367188 -12.5 l 1,9,-1
 250.000976562 -24.9990234375 l 1,10,-1
 228.350585938 -12.4990234375 l 1,11,-1
 228.349609375 412.5 l 1,6,-1
76.794921875 325 m 1,12,-1
 444.853515625 112.5 l 1,13,-1
 444.853515625 87.5 l 1,14,-1
 423.204101562 75 l 1,15,-1
 55.14453125 287.5 l 1,16,-1
 55.14453125 312.5 l 1,17,-1
 76.794921875 325 l 1,12,-1
EndSplineSet
EndChar

StartChar: three
Encoding: 51 51 69
Width: 500
GlyphClass: 1
Flags: W
LayerCount: 2
Fore
SplineSet
444.856445312 87.5 m 1,0,-1
 250 -25 l 1,1,-1
 55.1435546875 87.5 l 1,2,-1
 55.1435546875 312.5 l 1,3,-1
 250 425 l 1,4,-1
 271.650390625 412.5 l 1,5,-1
 271.650390625 387.5 l 1,6,-1
 98.4453125 287.5 l 1,7,-1
 98.4453125 112.5 l 1,8,-1
 250 25 l 1,9,-1
 423.205078125 125 l 1,10,-1
 444.856445312 112.5 l 1,11,-1
 444.856445312 87.5 l 1,0,-1
250 325 m 1,12,-1
 358.25390625 262.5 l 1,13,-1
 358.25390625 137.5 l 1,14,-1
 250 75 l 1,15,-1
 141.74609375 137.5 l 1,16,-1
 141.74609375 262.5 l 1,17,-1
 250 325 l 1,12,-1
250 275 m 1,18,-1
 185.048828125 237.5 l 1,19,-1
 185.048828125 162.5 l 1,20,-1
 250 125 l 1,21,-1
 314.951171875 162.5 l 1,22,-1
 314.951171875 237.5 l 1,23,-1
 250 275 l 1,18,-1
EndSplineSet
EndChar

StartChar: quotesingle
Encoding: 39 39 70
Width: 500
GlyphClass: 1
Flags: W
LayerCount: 2
Fore
SplineSet
250 225 m 1,0,-1
 271.650390625 212.5 l 1,1,-1
 271.650390625 187.5 l 1,2,-1
 250 175 l 1,3,-1
 228.349609375 187.5 l 1,4,-1
 228.349609375 212.5 l 1,5,-1
 250 225 l 1,0,-1
EndSplineSet
EndChar

StartChar: ampersand
Encoding: 38 38 71
Width: 500
GlyphClass: 1
Flags: W
LayerCount: 2
Fore
SplineSet
250 -25 m 1,0,-1
 55.14453125 87.5 l 1,1,-1
 55.14453125 112.5 l 1,2,-1
 76.794921875 125 l 1,3,-1
 250 25 l 1,4,-1
 401.5546875 112.5 l 1,5,-1
 401.5546875 287.5 l 1,6,-1
 250 375 l 1,7,-1
 76.794921875 275 l 1,8,-1
 55.14453125 287.5 l 1,9,-1
 55.14453125 312.5 l 1,10,-1
 250 425 l 1,11,-1
 444.85546875 312.5 l 1,12,-1
 444.85546875 87.5 l 1,13,-1
 250 -25 l 1,0,-1
250 75 m 1,14,-1
 141.74609375 137.5 l 1,15,-1
 141.74609375 162.5 l 1,16,-1
 163.396484375 175 l 1,17,-1
 250 125 l 1,18,-1
 314.951171875 162.5 l 1,19,-1
 314.951171875 237.5 l 1,20,-1
 250 275 l 1,21,-1
 163.396484375 225 l 1,22,-1
 141.74609375 237.5 l 1,23,-1
 141.74609375 262.5 l 1,24,-1
 250 325 l 1,25,-1
 358.25390625 262.5 l 1,26,-1
 358.25390625 137.5 l 1,27,-1
 250 75 l 1,14,-1
250 225 m 1,28,-1
 271.650390625 212.5 l 1,29,-1
 271.650390625 187.5 l 1,30,-1
 250 175 l 1,31,-1
 228.349609375 187.5 l 1,32,-1
 228.349609375 212.5 l 1,33,-1
 250 225 l 1,28,-1
EndSplineSet
EndChar

StartChar: two
Encoding: 50 50 72
Width: 500
GlyphClass: 1
Flags: W
LayerCount: 2
Fore
SplineSet
444.856445312 312.5 m 1,0,-1
 444.856445312 87.5 l 1,1,-1
 250 -25 l 1,2,-1
 55.14453125 87.5 l 1,3,-1
 55.14453125 312.5 l 1,4,-1
 76.794921875 325 l 1,5,-1
 98.4462890625 312.5 l 1,6,-1
 98.4462890625 112.5 l 1,7,-1
 250 25 l 1,8,-1
 401.5546875 112.5 l 1,9,-1
 401.5546875 312.5 l 1,10,-1
 423.206054688 325 l 1,11,-1
 444.856445312 312.5 l 1,0,-1
250 325 m 1,12,-1
 358.25390625 262.5 l 1,13,-1
 358.25390625 137.5 l 1,14,-1
 250 75 l 1,15,-1
 141.74609375 137.5 l 1,16,-1
 141.74609375 262.5 l 1,17,-1
 250 325 l 1,12,-1
250 275 m 1,18,-1
 185.048828125 237.5 l 1,19,-1
 185.048828125 162.5 l 1,20,-1
 250 125 l 1,21,-1
 314.951171875 162.5 l 1,22,-1
 314.951171875 237.5 l 1,23,-1
 250 275 l 1,18,-1
EndSplineSet
EndChar

StartChar: equal
Encoding: 61 61 73
Width: 500
GlyphClass: 1
Flags: W
LayerCount: 2
Fore
SplineSet
250 325 m 1,0,-1
 358.25390625 262.5 l 1,1,-1
 358.25390625 237.5 l 1,2,-1
 336.603515625 225 l 1,3,-1
 314.951171875 237.5 l 1,4,-1
 250 275 l 1,5,-1
 185.048828125 237.5 l 1,6,-1
 163.396484375 225 l 1,7,-1
 141.74609375 237.5 l 1,8,-1
 141.74609375 262.5 l 1,9,-1
 250 325 l 1,0,-1
163.396484375 175 m 1,10,-1
 185.048828125 162.5 l 1,11,-1
 250 125 l 1,12,-1
 314.951171875 162.5 l 1,13,-1
 336.603515625 175 l 1,14,-1
 358.25390625 162.5 l 1,15,-1
 358.25390625 137.5 l 1,16,-1
 250 75 l 1,17,-1
 141.74609375 137.5 l 1,18,-1
 141.74609375 162.5 l 1,19,-1
 163.396484375 175 l 1,10,-1
EndSplineSet
EndChar

StartChar: plus
Encoding: 43 43 74
Width: 500
GlyphClass: 1
Flags: W
LayerCount: 2
Fore
SplineSet
250 425 m 1,0,-1
 271.650390625 412.5 l 1,1,-1
 271.650390625 387.5 l 1,2,-1
 271.650390625 225 l 1,3,-1
 423.205078125 225 l 1,4,-1
 444.85546875 212.5 l 1,5,-1
 444.85546875 187.5 l 1,6,-1
 423.205078125 175 l 1,7,-1
 271.650390625 175 l 1,8,-1
 271.650390625 12.5 l 1,9,-1
 271.650390625 -12.5 l 1,10,-1
 250 -25 l 1,11,-1
 228.349609375 -12.5 l 1,12,-1
 228.349609375 12.5 l 1,13,-1
 228.349609375 175 l 1,14,-1
 76.794921875 175 l 1,15,-1
 55.14453125 187.5 l 1,16,-1
 55.14453125 212.5 l 1,17,-1
 76.794921875 225 l 1,18,-1
 228.349609375 225 l 1,19,-1
 228.349609375 387.5 l 1,20,-1
 228.349609375 412.5 l 1,21,-1
 250 425 l 1,0,-1
EndSplineSet
EndChar

StartChar: question
Encoding: 63 63 75
Width: 500
GlyphClass: 1
Flags: W
LayerCount: 2
Fore
SplineSet
250 425 m 1,0,-1
 271.650390625 412.5 l 1,1,-1
 271.650390625 387.5 l 1,2,-1
 250 375 l 1,3,-1
 228.349609375 387.5 l 1,4,-1
 228.349609375 412.5 l 1,5,-1
 250 425 l 1,0,-1
250 225 m 1,6,-1
 271.650390625 212.5 l 1,7,-1
 271.650390625 187.5 l 1,8,-1
 250 175 l 1,9,-1
 228.349609375 187.5 l 1,10,-1
 228.349609375 212.5 l 1,11,-1
 250 225 l 1,6,-1
250 25 m 1,12,-1
 271.650390625 12.5 l 1,13,-1
 271.650390625 -12.5 l 1,14,-1
 250 -25 l 1,15,-1
 228.349609375 -12.5 l 1,16,-1
 228.349609375 12.5 l 1,17,-1
 250 25 l 1,12,-1
EndSplineSet
EndChar

StartChar: dollar
Encoding: 36 36 76
Width: 500
GlyphClass: 1
Flags: W
LayerCount: 2
Fore
SplineSet
444.856445312 312.5 m 1,0,-1
 444.856445312 87.5 l 1,1,-1
 250 -25 l 1,2,-1
 55.14453125 87.5 l 1,3,-1
 55.14453125 312.5 l 1,4,-1
 76.794921875 325 l 1,5,-1
 98.4462890625 312.5 l 1,6,-1
 98.4462890625 112.5 l 1,7,-1
 250 25 l 1,8,-1
 401.5546875 112.5 l 1,9,-1
 401.5546875 312.5 l 1,10,-1
 423.206054688 325 l 1,11,-1
 444.856445312 312.5 l 1,0,-1
76.794921875 325 m 1,12,-1
 444.853515625 112.5 l 1,13,-1
 444.853515625 87.5 l 1,14,-1
 423.204101562 75 l 1,15,-1
 55.14453125 287.5 l 1,16,-1
 55.14453125 312.5 l 1,17,-1
 76.794921875 325 l 1,12,-1
271.650390625 612.5 m 1,18,-1
 271.650390625 -212.5 l 1,19,-1
 250 -225 l 1,20,-1
 228.349609375 -212.5 l 1,21,-1
 228.349609375 612.5 l 1,22,-1
 250 625 l 1,23,-1
 271.650390625 612.5 l 1,18,-1
EndSplineSet
EndChar

StartChar: zero
Encoding: 48 48 77
Width: 500
GlyphClass: 1
Flags: W
LayerCount: 2
Fore
SplineSet
250 325 m 1,0,-1
 358.25390625 262.5 l 1,1,-1
 358.25390625 137.5 l 1,2,-1
 250 75 l 1,3,-1
 141.74609375 137.5 l 1,4,-1
 141.74609375 262.5 l 1,5,-1
 250 325 l 1,0,-1
250 275 m 1,6,-1
 185.048828125 237.5 l 1,7,-1
 185.048828125 162.5 l 1,8,-1
 250 125 l 1,9,-1
 314.951171875 162.5 l 1,10,-1
 314.951171875 237.5 l 1,11,-1
 250 275 l 1,6,-1
EndSplineSet
EndChar

StartChar: one
Encoding: 49 49 78
Width: 500
GlyphClass: 1
Flags: W
LayerCount: 2
Fore
SplineSet
250 425 m 1,0,-1
 444.85546875 312.5 l 1,1,-1
 444.85546875 87.5 l 1,2,-1
 250 -25 l 1,3,-1
 55.14453125 87.5 l 1,4,-1
 55.14453125 112.5 l 1,5,-1
 76.794921875 125 l 1,6,-1
 250 25 l 1,7,-1
 401.5546875 112.5 l 1,8,-1
 401.5546875 287.5 l 1,9,-1
 228.349609375 387.5 l 1,10,-1
 228.349609375 412.5 l 1,11,-1
 250 425 l 1,0,-1
250 325 m 1,12,-1
 358.25390625 262.5 l 1,13,-1
 358.25390625 137.5 l 1,14,-1
 250 75 l 1,15,-1
 141.74609375 137.5 l 1,16,-1
 141.74609375 262.5 l 1,17,-1
 250 325 l 1,12,-1
250 275 m 1,18,-1
 185.048828125 237.5 l 1,19,-1
 185.048828125 162.5 l 1,20,-1
 250 125 l 1,21,-1
 314.951171875 162.5 l 1,22,-1
 314.951171875 237.5 l 1,23,-1
 250 275 l 1,18,-1
EndSplineSet
EndChar

StartChar: percent
Encoding: 37 37 79
Width: 500
GlyphClass: 1
Flags: W
LayerCount: 2
Fore
SplineSet
250 325 m 1,0,-1
 336.603515625 275 l 1,1,-1
 423.205078125 325 l 1,2,-1
 444.85546875 312.5 l 1,3,-1
 444.85546875 287.5 l 1,4,-1
 358.25390625 237.5 l 1,5,-1
 358.25390625 137.5 l 1,6,-1
 250 75 l 1,7,-1
 163.3984375 125 l 1,8,-1
 76.796875 75 l 1,9,-1
 55.146484375 87.5 l 1,10,-1
 55.146484375 112.5 l 1,11,-1
 141.74609375 162.498046875 l 1,12,-1
 141.74609375 262.5 l 1,13,-1
 250 325 l 1,0,-1
250 275 m 1,14,-1
 185.048828125 237.5 l 1,15,-1
 185.048828125 187.5 l 1,16,-1
 293.30078125 250 l 1,17,-1
 250 275 l 1,14,-1
314.951171875 212.5 m 1,18,-1
 206.69921875 150 l 1,19,-1
 250 125 l 1,20,-1
 314.951171875 162.5 l 1,21,-1
 314.951171875 212.5 l 1,18,-1
EndSplineSet
EndChar

StartChar: comma
Encoding: 44 44 80
Width: 500
GlyphClass: 1
Flags: W
LayerCount: 2
Fore
SplineSet
76.794921875 225 m 1,0,-1
 98.4453125 212.5 l 1,1,-1
 98.4453125 187.5 l 1,2,-1
 76.794921875 175 l 1,3,-1
 55.14453125 187.5 l 1,4,-1
 55.14453125 212.5 l 1,5,-1
 76.794921875 225 l 1,0,-1
250 225 m 1,6,-1
 271.650390625 212.5 l 1,7,-1
 271.650390625 187.5 l 1,8,-1
 250 175 l 1,9,-1
 228.349609375 187.5 l 1,10,-1
 228.349609375 212.5 l 1,11,-1
 250 225 l 1,6,-1
423.205078125 225 m 1,12,-1
 444.85546875 212.5 l 1,13,-1
 444.85546875 187.5 l 1,14,-1
 423.205078125 175 l 1,15,-1
 401.5546875 187.5 l 1,16,-1
 401.5546875 212.5 l 1,17,-1
 423.205078125 225 l 1,12,-1
EndSplineSet
EndChar

StartChar: exclam
Encoding: 33 33 81
Width: 500
GlyphClass: 1
Flags: W
LayerCount: 2
Fore
SplineSet
250 425 m 1,0,-1
 271.650390625 412.5 l 1,1,-1
 271.650390625 387.5 l 1,2,-1
 250 375 l 1,3,-1
 228.349609375 387.5 l 1,4,-1
 228.349609375 412.5 l 1,5,-1
 250 425 l 1,0,-1
250 25 m 1,6,-1
 271.650390625 12.5 l 1,7,-1
 271.650390625 -12.5 l 1,8,-1
 250 -25 l 1,9,-1
 228.349609375 -12.5 l 1,10,-1
 228.349609375 12.5 l 1,11,-1
 250 25 l 1,6,-1
EndSplineSet
EndChar

StartChar: five
Encoding: 53 53 82
Width: 500
GlyphClass: 1
Flags: W
LayerCount: 2
Fore
SplineSet
250 425 m 1,0,-1
 423.205078125 325 l 1,1,-1
 444.85546875 312.5 l 1,2,-1
 444.85546875 87.5 l 1,3,-1
 423.205078125 75 l 1,4,-1
 250 -25 l 1,5,-1
 76.794921875 75 l 1,6,-1
 55.14453125 87.5 l 1,7,-1
 55.14453125 312.5 l 1,8,-1
 76.794921875 325 l 1,9,-1
 250 425 l 1,0,-1
250 375 m 1,10,-1
 98.4453125 287.5 l 1,11,-1
 98.4453125 112.5 l 1,12,-1
 250 25 l 1,13,-1
 401.5546875 112.5 l 1,14,-1
 401.5546875 287.5 l 1,15,-1
 250 375 l 1,10,-1
250 325 m 1,16,-1
 358.25390625 262.5 l 1,17,-1
 358.25390625 137.5 l 1,18,-1
 250 75 l 1,19,-1
 141.74609375 137.5 l 1,20,-1
 141.74609375 262.5 l 1,21,-1
 250 325 l 1,16,-1
250 275 m 1,22,-1
 185.048828125 237.5 l 1,23,-1
 185.048828125 162.5 l 1,24,-1
 250 125 l 1,25,-1
 314.951171875 162.5 l 1,26,-1
 314.951171875 237.5 l 1,27,-1
 250 275 l 1,22,-1
EndSplineSet
EndChar

StartChar: less
Encoding: 60 60 83
Width: 500
GlyphClass: 1
Flags: W
LayerCount: 2
Fore
SplineSet
250 325 m 1,0,-1
 358.25390625 262.5 l 1,1,-1
 358.25390625 237.5 l 1,2,-1
 336.603515625 225 l 1,3,-1
 250 275 l 1,4,-1
 185.048828125 237.5 l 1,5,-1
 185.048828125 162.5 l 1,6,-1
 250 125 l 1,7,-1
 336.603515625 175 l 1,8,-1
 358.25390625 162.5 l 1,9,-1
 358.25390625 137.5 l 1,10,-1
 250 75 l 1,11,-1
 141.74609375 137.5 l 1,12,-1
 141.74609375 262.5 l 1,13,-1
 250 325 l 1,0,-1
EndSplineSet
EndChar

StartChar: semicolon
Encoding: 59 59 84
Width: 500
GlyphClass: 1
Flags: W
LayerCount: 2
Fore
SplineSet
250 325 m 1,0,-1
 358.25390625 262.5 l 1,1,-1
 358.25390625 137.5 l 1,2,-1
 250 75 l 1,3,-1
 141.74609375 137.5 l 1,4,-1
 141.74609375 262.5 l 1,5,-1
 250 325 l 1,0,-1
250 275 m 1,6,-1
 185.048828125 237.5 l 1,7,-1
 185.048828125 162.5 l 1,8,-1
 250 125 l 1,9,-1
 314.951171875 162.5 l 1,10,-1
 314.951171875 237.5 l 1,11,-1
 250 275 l 1,6,-1
76.794921875 225 m 1,12,-1
 98.4453125 212.5 l 1,13,-1
 98.4453125 187.5 l 1,14,-1
 76.794921875 175 l 1,15,-1
 55.14453125 187.5 l 1,16,-1
 55.14453125 212.5 l 1,17,-1
 76.794921875 225 l 1,12,-1
250 225 m 1,18,-1
 271.650390625 212.5 l 1,19,-1
 271.650390625 187.5 l 1,20,-1
 250 175 l 1,21,-1
 228.349609375 187.5 l 1,22,-1
 228.349609375 212.5 l 1,23,-1
 250 225 l 1,18,-1
423.205078125 225 m 1,24,-1
 444.85546875 212.5 l 1,25,-1
 444.85546875 187.5 l 1,26,-1
 423.205078125 175 l 1,27,-1
 401.5546875 187.5 l 1,28,-1
 401.5546875 212.5 l 1,29,-1
 423.205078125 225 l 1,24,-1
EndSplineSet
EndChar

StartChar: slash
Encoding: 47 47 85
Width: 500
GlyphClass: 1
Flags: W
LayerCount: 2
Fore
SplineSet
423.205078125 325 m 1,0,-1
 444.85546875 312.5 l 1,1,-1
 444.85546875 287.5 l 1,2,-1
 76.7958984375 75 l 1,3,-1
 55.146484375 87.5 l 1,4,-1
 55.146484375 112.5 l 1,5,-1
 423.205078125 325 l 1,0,-1
EndSplineSet
EndChar

StartChar: four
Encoding: 52 52 86
Width: 500
GlyphClass: 1
Flags: W
LayerCount: 2
Fore
SplineSet
250 -25 m 1,0,-1
 55.14453125 87.5 l 1,1,-1
 55.14453125 112.5 l 1,2,-1
 76.794921875 125 l 1,3,-1
 250 25 l 1,4,-1
 401.5546875 112.5 l 1,5,-1
 401.5546875 287.5 l 1,6,-1
 250 375 l 1,7,-1
 76.794921875 275 l 1,8,-1
 55.14453125 287.5 l 1,9,-1
 55.14453125 312.5 l 1,10,-1
 250 425 l 1,11,-1
 444.85546875 312.5 l 1,12,-1
 444.85546875 87.5 l 1,13,-1
 250 -25 l 1,0,-1
250 325 m 1,14,-1
 358.25390625 262.5 l 1,15,-1
 358.25390625 137.5 l 1,16,-1
 250 75 l 1,17,-1
 141.74609375 137.5 l 1,18,-1
 141.74609375 262.5 l 1,19,-1
 250 325 l 1,14,-1
250 275 m 1,20,-1
 185.048828125 237.5 l 1,21,-1
 185.048828125 162.5 l 1,22,-1
 250 125 l 1,23,-1
 314.951171875 162.5 l 1,24,-1
 314.951171875 237.5 l 1,25,-1
 250 275 l 1,20,-1
EndSplineSet
EndChar

StartChar: six
Encoding: 54 54 87
Width: 500
GlyphClass: 1
Flags: W
LayerCount: 2
Fore
SplineSet
250 425 m 1,0,-1
 444.85546875 312.5 l 1,1,-1
 444.85546875 287.5 l 1,2,-1
 423.205078125 275 l 1,3,-1
 250 375 l 1,4,-1
 98.4453125 287.5 l 1,5,-1
 98.4453125 112.5 l 1,6,-1
 250 25 l 1,7,-1
 423.205078125 125 l 1,8,-1
 444.85546875 112.5 l 1,9,-1
 444.85546875 87.5 l 1,10,-1
 250 -25 l 1,11,-1
 55.14453125 87.5 l 1,12,-1
 55.14453125 312.5 l 1,13,-1
 250 425 l 1,0,-1
250 325 m 1,14,-1
 358.25390625 262.5 l 1,15,-1
 358.25390625 137.5 l 1,16,-1
 250 75 l 1,17,-1
 141.74609375 137.5 l 1,18,-1
 141.74609375 262.5 l 1,19,-1
 250 325 l 1,14,-1
250 275 m 1,20,-1
 185.048828125 237.5 l 1,21,-1
 185.048828125 162.5 l 1,22,-1
 250 125 l 1,23,-1
 314.951171875 162.5 l 1,24,-1
 314.951171875 237.5 l 1,25,-1
 250 275 l 1,20,-1
EndSplineSet
EndChar

StartChar: quotedbl
Encoding: 34 34 88
Width: 500
GlyphClass: 1
Flags: W
LayerCount: 2
Fore
SplineSet
76.794921875 225 m 1,0,-1
 98.4453125 212.5 l 1,1,-1
 98.4453125 187.5 l 1,2,-1
 76.794921875 175 l 1,3,-1
 55.14453125 187.5 l 1,4,-1
 55.14453125 212.5 l 1,5,-1
 76.794921875 225 l 1,0,-1
423.205078125 225 m 1,6,-1
 444.85546875 212.5 l 1,7,-1
 444.85546875 187.5 l 1,8,-1
 423.205078125 175 l 1,9,-1
 401.5546875 187.5 l 1,10,-1
 401.5546875 212.5 l 1,11,-1
 423.205078125 225 l 1,6,-1
EndSplineSet
EndChar

StartChar: hyphen
Encoding: 45 45 89
Width: 500
GlyphClass: 1
Flags: W
LayerCount: 2
Fore
SplineSet
76.794921875 225 m 1,0,-1
 423.205078125 225 l 1,1,-1
 444.85546875 212.5 l 1,2,-1
 444.85546875 187.5 l 1,3,-1
 423.205078125 175 l 1,4,-1
 76.794921875 175 l 1,5,-1
 55.14453125 187.5 l 1,6,-1
 55.14453125 212.5 l 1,7,-1
 76.794921875 225 l 1,0,-1
EndSplineSet
EndChar

StartChar: period
Encoding: 46 46 90
Width: 500
GlyphClass: 1
Flags: W
LayerCount: 2
Fore
SplineSet
250 425 m 1,0,-1
 271.650390625 412.5 l 1,1,-1
 271.650390625 387.5 l 1,2,-1
 250 375 l 1,3,-1
 228.349609375 387.5 l 1,4,-1
 228.349609375 412.5 l 1,5,-1
 250 425 l 1,0,-1
76.794921875 225 m 1,6,-1
 98.4453125 212.5 l 1,7,-1
 98.4453125 187.5 l 1,8,-1
 76.794921875 175 l 1,9,-1
 55.14453125 187.5 l 1,10,-1
 55.14453125 212.5 l 1,11,-1
 76.794921875 225 l 1,6,-1
250 225 m 1,12,-1
 271.650390625 212.5 l 1,13,-1
 271.650390625 187.5 l 1,14,-1
 250 175 l 1,15,-1
 228.349609375 187.5 l 1,16,-1
 228.349609375 212.5 l 1,17,-1
 250 225 l 1,12,-1
423.205078125 225 m 1,18,-1
 444.85546875 212.5 l 1,19,-1
 444.85546875 187.5 l 1,20,-1
 423.205078125 175 l 1,21,-1
 401.5546875 187.5 l 1,22,-1
 401.5546875 212.5 l 1,23,-1
 423.205078125 225 l 1,18,-1
250 25 m 1,24,-1
 271.650390625 12.5 l 1,25,-1
 271.650390625 -12.5 l 1,26,-1
 250 -25 l 1,27,-1
 228.349609375 -12.5 l 1,28,-1
 228.349609375 12.5 l 1,29,-1
 250 25 l 1,24,-1
EndSplineSet
EndChar

StartChar: colon
Encoding: 58 58 91
Width: 500
GlyphClass: 1
Flags: W
LayerCount: 2
Fore
SplineSet
250 425 m 1,0,-1
 271.650390625 412.5 l 1,1,-1
 271.650390625 387.5 l 1,2,-1
 250 375 l 1,3,-1
 228.349609375 387.5 l 1,4,-1
 228.349609375 412.5 l 1,5,-1
 250 425 l 1,0,-1
250 325 m 1,6,-1
 358.25390625 262.5 l 1,7,-1
 358.25390625 137.5 l 1,8,-1
 250 75 l 1,9,-1
 141.74609375 137.5 l 1,10,-1
 141.74609375 262.5 l 1,11,-1
 250 325 l 1,6,-1
250 275 m 1,12,-1
 185.048828125 237.5 l 1,13,-1
 185.048828125 162.5 l 1,14,-1
 250 125 l 1,15,-1
 314.951171875 162.5 l 1,16,-1
 314.951171875 237.5 l 1,17,-1
 250 275 l 1,12,-1
76.794921875 225 m 1,18,-1
 98.4453125 212.5 l 1,19,-1
 98.4453125 187.5 l 1,20,-1
 76.794921875 175 l 1,21,-1
 55.14453125 187.5 l 1,22,-1
 55.14453125 212.5 l 1,23,-1
 76.794921875 225 l 1,18,-1
250 225 m 1,24,-1
 271.650390625 212.5 l 1,25,-1
 271.650390625 187.5 l 1,26,-1
 250 175 l 1,27,-1
 228.349609375 187.5 l 1,28,-1
 228.349609375 212.5 l 1,29,-1
 250 225 l 1,24,-1
423.205078125 225 m 1,30,-1
 444.85546875 212.5 l 1,31,-1
 444.85546875 187.5 l 1,32,-1
 423.205078125 175 l 1,33,-1
 401.5546875 187.5 l 1,34,-1
 401.5546875 212.5 l 1,35,-1
 423.205078125 225 l 1,30,-1
250 25 m 1,36,-1
 271.650390625 12.5 l 1,37,-1
 271.650390625 -12.5 l 1,38,-1
 250 -25 l 1,39,-1
 228.349609375 -12.5 l 1,40,-1
 228.349609375 12.5 l 1,41,-1
 250 25 l 1,36,-1
EndSplineSet
EndChar

StartChar: numbersign
Encoding: 35 35 92
Width: 500
GlyphClass: 1
Flags: W
LayerCount: 2
Fore
SplineSet
423.205078125 325 m 1,0,-1
 444.85546875 312.5 l 1,1,-1
 444.85546875 287.5 l 1,2,-1
 76.7958984375 75 l 1,3,-1
 55.146484375 87.5 l 1,4,-1
 55.146484375 112.5 l 1,5,-1
 423.205078125 325 l 1,0,-1
76.794921875 325 m 1,6,-1
 444.853515625 112.5 l 1,7,-1
 444.853515625 87.5 l 1,8,-1
 423.204101562 75 l 1,9,-1
 55.14453125 287.5 l 1,10,-1
 55.14453125 312.5 l 1,11,-1
 76.794921875 325 l 1,6,-1
250 325 m 1,12,-1
 358.25390625 262.5 l 1,13,-1
 358.25390625 237.5 l 1,14,-1
 336.603515625 225 l 1,15,-1
 314.951171875 237.5 l 1,16,-1
 250 275 l 1,17,-1
 185.048828125 237.5 l 1,18,-1
 163.396484375 225 l 1,19,-1
 141.74609375 237.5 l 1,20,-1
 141.74609375 262.5 l 1,21,-1
 250 325 l 1,12,-1
163.396484375 175 m 1,22,-1
 185.048828125 162.5 l 1,23,-1
 250 125 l 1,24,-1
 314.951171875 162.5 l 1,25,-1
 336.603515625 175 l 1,26,-1
 358.25390625 162.5 l 1,27,-1
 358.25390625 137.5 l 1,28,-1
 250 75 l 1,29,-1
 141.74609375 137.5 l 1,30,-1
 141.74609375 162.5 l 1,31,-1
 163.396484375 175 l 1,22,-1
EndSplineSet
EndChar

StartChar: seven
Encoding: 55 55 93
Width: 500
GlyphClass: 1
Flags: W
LayerCount: 2
Fore
SplineSet
228.349609375 -12.5 m 1,0,-1
 228.348632812 12.5 l 1,1,-1
 401.553710938 112.5 l 1,2,-1
 401.553710938 287.5 l 1,3,-1
 250 375 l 1,4,-1
 76.7939453125 275 l 1,5,-1
 55.1435546875 287.5 l 1,6,-1
 55.1435546875 312.5 l 1,7,-1
 250 425 l 1,8,-1
 444.856445312 312.5 l 1,9,-1
 444.856445312 87.5 l 1,10,-1
 250 -25 l 1,11,-1
 228.349609375 -12.5 l 1,0,-1
250 325 m 1,12,-1
 358.25390625 262.5 l 1,13,-1
 358.25390625 137.5 l 1,14,-1
 250 75 l 1,15,-1
 141.74609375 137.5 l 1,16,-1
 141.74609375 262.5 l 1,17,-1
 250 325 l 1,12,-1
250 275 m 1,18,-1
 185.048828125 237.5 l 1,19,-1
 185.048828125 162.5 l 1,20,-1
 250 125 l 1,21,-1
 314.951171875 162.5 l 1,22,-1
 314.951171875 237.5 l 1,23,-1
 250 275 l 1,18,-1
EndSplineSet
EndChar

StartChar: uni25CC
Encoding: 9676 9676 94
Width: 500
GlyphClass: 2
Flags: W
AnchorPoint: "vowel" 250 200 basechar 0
LayerCount: 2
Fore
SplineSet
250 425 m 1,0,-1
 271.650390625 412.5 l 1,1,-1
 271.650390625 387.5 l 1,2,-1
 250 375 l 1,3,-1
 228.349609375 387.5 l 1,4,-1
 228.349609375 412.5 l 1,5,-1
 250 425 l 1,0,-1
76.794921875 325 m 1,6,-1
 98.4453125 312.5 l 1,7,-1
 98.4453125 287.5 l 1,8,-1
 76.794921875 275 l 1,9,-1
 55.14453125 287.5 l 1,10,-1
 55.14453125 312.5 l 1,11,-1
 76.794921875 325 l 1,6,-1
423.205078125 325 m 1,12,-1
 444.85546875 312.5 l 1,13,-1
 444.85546875 287.5 l 1,14,-1
 423.205078125 275 l 1,15,-1
 401.5546875 287.5 l 1,16,-1
 401.5546875 312.5 l 1,17,-1
 423.205078125 325 l 1,12,-1
76.794921875 225 m 1,18,-1
 98.4453125 212.5 l 1,19,-1
 98.4453125 187.5 l 1,20,-1
 76.794921875 175 l 1,21,-1
 55.14453125 187.5 l 1,22,-1
 55.14453125 212.5 l 1,23,-1
 76.794921875 225 l 1,18,-1
423.205078125 225 m 1,24,-1
 444.85546875 212.5 l 1,25,-1
 444.85546875 187.5 l 1,26,-1
 423.205078125 175 l 1,27,-1
 401.5546875 187.5 l 1,28,-1
 401.5546875 212.5 l 1,29,-1
 423.205078125 225 l 1,24,-1
76.794921875 125 m 1,30,-1
 98.4453125 112.5 l 1,31,-1
 98.4453125 87.5 l 1,32,-1
 76.794921875 75 l 1,33,-1
 55.14453125 87.5 l 1,34,-1
 55.14453125 112.5 l 1,35,-1
 76.794921875 125 l 1,30,-1
423.205078125 125 m 1,36,-1
 444.85546875 112.5 l 1,37,-1
 444.85546875 87.5 l 1,38,-1
 423.205078125 75 l 1,39,-1
 401.5546875 87.5 l 1,40,-1
 401.5546875 112.5 l 1,41,-1
 423.205078125 125 l 1,36,-1
250 25 m 1,42,-1
 271.650390625 12.5 l 1,43,-1
 271.650390625 -12.5 l 1,44,-1
 250 -25 l 1,45,-1
 228.349609375 -12.5 l 1,46,-1
 228.349609375 12.5 l 1,47,-1
 250 25 l 1,42,-1
EndSplineSet
EndChar

StartChar: acute
Encoding: 180 180 95
Width: 500
GlyphClass: 1
Flags: W
LayerCount: 2
Fore
SplineSet
423.205078125 225 m 1,0,-1
 444.85546875 212.5 l 1,1,-1
 444.85546875 187.5 l 1,2,-1
 423.205078125 175 l 1,3,-1
 401.5546875 187.5 l 1,4,-1
 401.5546875 212.5 l 1,5,-1
 423.205078125 225 l 1,0,-1
250 25 m 1,6,-1
 271.650390625 12.5 l 1,7,-1
 271.650390625 -12.5 l 1,8,-1
 250 -25 l 1,9,-1
 228.349609375 -12.5 l 1,10,-1
 228.349609375 12.5 l 1,11,-1
 250 25 l 1,6,-1
EndSplineSet
EndChar

StartChar: paragraph
Encoding: 182 182 96
Width: 500
GlyphClass: 1
Flags: W
LayerCount: 2
Fore
SplineSet
271.650390625 612.5 m 1,0,-1
 271.650390625 -212.5 l 1,1,-1
 250 -225 l 1,2,-1
 228.349609375 -212.5 l 1,3,-1
 228.349609375 612.5 l 1,4,-1
 250 625 l 1,5,-1
 271.650390625 612.5 l 1,0,-1
250 325 m 1,6,-1
 358.25390625 262.5 l 1,7,-1
 358.25390625 137.5 l 1,8,-1
 250 75 l 1,9,-1
 141.74609375 137.5 l 1,10,-1
 141.74609375 262.5 l 1,11,-1
 250 325 l 1,6,-1
250 275 m 1,12,-1
 185.048828125 237.5 l 1,13,-1
 185.048828125 162.5 l 1,14,-1
 250 125 l 1,15,-1
 314.951171875 162.5 l 1,16,-1
 314.951171875 237.5 l 1,17,-1
 250 275 l 1,12,-1
EndSplineSet
EndChar

StartChar: uni0307
Encoding: 775 775 97
Width: 0
GlyphClass: 4
Flags: W
LayerCount: 2
Fore
SplineSet
-250 500 m 1,0,-1
 -239.173828125 493.75 l 1,1,-1
 -239.173828125 481.25 l 1,2,-1
 -250 475 l 1,3,-1
 -260.826171875 481.25 l 1,4,-1
 -260.826171875 493.75 l 1,5,-1
 -250 500 l 1,0,-1
-250 525 m 1,6,-1
 -239.173828125 518.75 l 1,7,-1
 -239.173828125 506.25 l 1,8,-1
 -250 500 l 1,9,-1
 -260.826171875 506.25 l 1,10,-1
 -260.826171875 518.75 l 1,11,-1
 -250 525 l 1,6,-1
-250 550 m 1,12,-1
 -239.173828125 543.75 l 1,13,-1
 -239.173828125 531.25 l 1,14,-1
 -250 525 l 1,15,-1
 -260.826171875 531.25 l 1,16,-1
 -260.826171875 543.75 l 1,17,-1
 -250 550 l 1,12,-1
-271.650390625 525 m 1,18,-1
 -260.82421875 518.75 l 1,19,-1
 -260.82421875 506.25 l 1,20,-1
 -271.650390625 500 l 1,21,-1
 -282.4765625 506.25 l 1,22,-1
 -282.4765625 518.75 l 1,23,-1
 -271.650390625 525 l 1,18,-1
-228.349609375 525.000976562 m 1,24,-1
 -217.5234375 518.750976562 l 1,25,-1
 -217.5234375 506.250976562 l 1,26,-1
 -228.349609375 500.000976562 l 1,27,-1
 -239.17578125 506.250976562 l 1,28,-1
 -239.17578125 518.750976562 l 1,29,-1
 -228.349609375 525.000976562 l 1,24,-1
EndSplineSet
EndChar

StartChar: uni0304
Encoding: 772 772 98
Width: 0
GlyphClass: 4
Flags: W
LayerCount: 2
Fore
SplineSet
-228.349609375 500 m 1,0,-1
 -271.650390625 500 l 1,1,-1
 -282.4765625 506.25 l 1,2,-1
 -282.4765625 518.75 l 1,3,-1
 -271.650390625 525 l 1,4,-1
 -228.349609375 525 l 1,5,-1
 -217.5234375 518.75 l 1,6,-1
 -217.5234375 506.25 l 1,7,-1
 -228.349609375 500 l 1,0,-1
EndSplineSet
EndChar

StartChar: uni030C
Encoding: 780 780 99
Width: 0
GlyphClass: 4
Flags: W
LayerCount: 2
Fore
SplineSet
-271.650390625 512.5 m 1,0,-1
 -260.82421875 506.25 l 1,1,-1
 -260.82421875 493.751953125 l 1,2,-1
 -250 500 l 1,3,-1
 -239.17578125 493.751953125 l 1,4,-1
 -239.17578125 506.25 l 1,5,-1
 -228.349609375 512.5 l 1,6,-1
 -217.5234375 506.25 l 1,7,-1
 -217.5234375 493.75 l 1,8,-1
 -228.349609375 487.5 l 1,9,-1
 -239.173828125 493.748046875 l 1,10,-1
 -239.173828125 481.25 l 1,11,-1
 -250 475 l 1,12,-1
 -260.826171875 481.25 l 1,13,-1
 -260.826171875 493.748046875 l 1,14,-1
 -271.650390625 487.5 l 1,15,-1
 -282.4765625 493.75 l 1,16,-1
 -282.4765625 506.25 l 1,17,-1
 -271.650390625 512.5 l 1,0,-1
EndSplineSet
EndChar

StartChar: acutecomb
Encoding: 769 769 100
Width: 0
GlyphClass: 4
Flags: W
LayerCount: 2
Fore
SplineSet
-260.826171875 493.748046875 m 1,0,-1
 -260.826171875 481.25 l 1,1,-1
 -250 475 l 1,2,-1
 -239.173828125 481.25 l 1,3,-1
 -239.173828125 493.748046875 l 1,4,-1
 -228.349609375 487.5 l 1,5,-1
 -217.5234375 493.75 l 1,6,-1
 -217.5234375 506.25 l 1,7,-1
 -228.349609375 512.5 l 1,8,-1
 -239.17578125 506.25 l 1,9,-1
 -239.17578125 493.751953125 l 1,10,-1
 -250 500 l 1,11,-1
 -260.82421875 493.751953125 l 1025,12,-1
EndSplineSet
EndChar

StartChar: gravecomb
Encoding: 768 768 101
Width: 0
GlyphClass: 4
Flags: W
LayerCount: 2
Fore
SplineSet
-239.17578125 493.751953125 m 1,0,-1
 -250 500 l 1,1,-1
 -260.82421875 493.751953125 l 1,2,-1
 -260.82421875 506.25 l 1,3,-1
 -271.650390625 512.5 l 1,4,-1
 -282.4765625 506.25 l 1,5,-1
 -282.4765625 493.75 l 1,6,-1
 -271.650390625 487.5 l 1,7,-1
 -260.826171875 493.748046875 l 1,8,-1
 -260.826171875 481.25 l 1,9,-1
 -250 475 l 1,10,-1
 -239.173828125 481.25 l 1,11,-1
 -239.173828125 493.748046875 l 1025,12,-1
EndSplineSet
EndChar

StartChar: uni0302
Encoding: 770 770 102
Width: 0
GlyphClass: 4
Flags: W
LayerCount: 2
Fore
SplineSet
-250 550 m 1,0,-1
 -239.173828125 543.75 l 1,1,-1
 -239.173828125 531.251953125 l 1,2,-1
 -228.349609375 537.5 l 1,3,-1
 -217.5234375 531.25 l 1,4,-1
 -217.5234375 518.75 l 1,5,-1
 -228.349609375 512.5 l 1,6,-1
 -239.17578125 518.75 l 1,7,-1
 -239.17578125 531.248046875 l 1,8,-1
 -250 525 l 1,9,-1
 -260.82421875 531.248046875 l 1,10,-1
 -260.82421875 518.75 l 1,11,-1
 -271.650390625 512.5 l 1,12,-1
 -282.4765625 518.75 l 1,13,-1
 -282.4765625 531.25 l 1,14,-1
 -271.650390625 537.5 l 1,15,-1
 -260.826171875 531.251953125 l 1,16,-1
 -260.826171875 543.75 l 1,17,-1
 -250 550 l 1,0,-1
EndSplineSet
EndChar

StartChar: uni0316
Encoding: 790 790 103
Width: 0
GlyphClass: 4
Flags: W
LayerCount: 2
Fore
SplineSet
-260.82421875 -93.751953125 m 1,0,-1
 -250 -100 l 1,1,-1
 -239.17578125 -93.751953125 l 1,2,-1
 -239.17578125 -106.25 l 1,3,-1
 -228.349609375 -112.5 l 1,4,-1
 -217.5234375 -106.25 l 1,5,-1
 -217.5234375 -93.75 l 1,6,-1
 -228.349609375 -87.5 l 1,7,-1
 -239.173828125 -93.748046875 l 1,8,-1
 -239.173828125 -81.25 l 1,9,-1
 -250 -75 l 1,10,-1
 -260.826171875 -81.25 l 1,11,-1
 -260.826171875 -93.748046875 l 1025,12,-1
EndSplineSet
EndChar

StartChar: uni0317
Encoding: 791 791 104
Width: 0
GlyphClass: 4
Flags: W
LayerCount: 2
Fore
SplineSet
-239.173828125 -93.748046875 m 1,0,-1
 -239.173828125 -81.25 l 1,1,-1
 -250 -75 l 1,2,-1
 -260.826171875 -81.25 l 1,3,-1
 -260.826171875 -93.748046875 l 1,4,-1
 -271.650390625 -87.5 l 1,5,-1
 -282.4765625 -93.75 l 1,6,-1
 -282.4765625 -106.25 l 1,7,-1
 -271.650390625 -112.5 l 1,8,-1
 -260.82421875 -106.25 l 1,9,-1
 -260.82421875 -93.751953125 l 1,10,-1
 -250 -100 l 1,11,-1
 -239.17578125 -93.751953125 l 1025,12,-1
EndSplineSet
EndChar

StartChar: uni032C
Encoding: 812 812 105
Width: 0
GlyphClass: 4
Flags: W
LayerCount: 2
Fore
SplineSet
-271.650390625 -112.5 m 1,0,-1
 -260.82421875 -118.75 l 1,1,-1
 -260.82421875 -131.248046875 l 1,2,-1
 -250 -125 l 1,3,-1
 -239.17578125 -131.248046875 l 1,4,-1
 -239.17578125 -118.75 l 1,5,-1
 -228.349609375 -112.5 l 1,6,-1
 -217.5234375 -118.75 l 1,7,-1
 -217.5234375 -131.25 l 1,8,-1
 -228.349609375 -137.5 l 1,9,-1
 -239.173828125 -131.251953125 l 1,10,-1
 -239.173828125 -143.75 l 1,11,-1
 -250 -150 l 1,12,-1
 -260.826171875 -143.75 l 1,13,-1
 -260.826171875 -131.251953125 l 1,14,-1
 -271.650390625 -137.5 l 1,15,-1
 -282.4765625 -131.25 l 1,16,-1
 -282.4765625 -118.75 l 1,17,-1
 -271.650390625 -112.5 l 1,0,-1
EndSplineSet
EndChar

StartChar: uni0331
Encoding: 817 817 106
Width: 0
GlyphClass: 4
Flags: W
LayerCount: 2
Fore
SplineSet
-228.349609375 -125 m 1,0,-1
 -271.650390625 -125 l 1,1,-1
 -282.4765625 -118.75 l 1,2,-1
 -282.4765625 -106.25 l 1,3,-1
 -271.650390625 -100 l 1,4,-1
 -228.349609375 -100 l 1,5,-1
 -217.5234375 -106.25 l 1,6,-1
 -217.5234375 -118.75 l 1,7,-1
 -228.349609375 -125 l 1,0,-1
EndSplineSet
EndChar

StartChar: uni0324
Encoding: 804 804 107
Width: 0
GlyphClass: 4
Flags: W
LayerCount: 2
Fore
SplineSet
-271.650390625 -100 m 1,0,-1
 -260.82421875 -106.25 l 1,1,-1
 -260.82421875 -118.75 l 1,2,-1
 -271.650390625 -125 l 1,3,-1
 -282.4765625 -118.75 l 1,4,-1
 -282.4765625 -106.25 l 1,5,-1
 -271.650390625 -100 l 1,0,-1
-228.349609375 -100 m 1,6,-1
 -217.5234375 -106.25 l 1,7,-1
 -217.5234375 -118.75 l 1,8,-1
 -228.349609375 -125 l 1,9,-1
 -239.17578125 -118.75 l 1,10,-1
 -239.17578125 -106.25 l 1,11,-1
 -228.349609375 -100 l 1,6,-1
EndSplineSet
EndChar

StartChar: uni0308
Encoding: 776 776 108
Width: 0
GlyphClass: 4
Flags: W
LayerCount: 2
Fore
SplineSet
-271.650390625 525 m 1,0,-1
 -260.82421875 518.75 l 1,1,-1
 -260.82421875 506.25 l 1,2,-1
 -271.650390625 500 l 1,3,-1
 -282.4765625 506.25 l 1,4,-1
 -282.4765625 518.75 l 1,5,-1
 -271.650390625 525 l 1,0,-1
-228.349609375 525 m 1,6,-1
 -217.5234375 518.75 l 1,7,-1
 -217.5234375 506.25 l 1,8,-1
 -228.349609375 500 l 1,9,-1
 -239.17578125 506.25 l 1,10,-1
 -239.17578125 518.75 l 1,11,-1
 -228.349609375 525 l 1,6,-1
EndSplineSet
EndChar

StartChar: dotbelowcomb
Encoding: 803 803 109
Width: 0
GlyphClass: 4
Flags: W
LayerCount: 2
Fore
SplineSet
-250 -125 m 1,0,-1
 -239.173828125 -131.25 l 1,1,-1
 -239.173828125 -143.75 l 1,2,-1
 -250 -150 l 1,3,-1
 -260.826171875 -143.75 l 1,4,-1
 -260.826171875 -131.25 l 1,5,-1
 -250 -125 l 1,0,-1
-250 -100 m 1,6,-1
 -239.173828125 -106.25 l 1,7,-1
 -239.173828125 -118.75 l 1,8,-1
 -250 -125 l 1,9,-1
 -260.826171875 -118.75 l 1,10,-1
 -260.826171875 -106.25 l 1,11,-1
 -250 -100 l 1,6,-1
-250 -75 m 1,12,-1
 -239.173828125 -81.25 l 1,13,-1
 -239.173828125 -93.75 l 1,14,-1
 -250 -100 l 1,15,-1
 -260.826171875 -93.75 l 1,16,-1
 -260.826171875 -81.25 l 1,17,-1
 -250 -75 l 1,12,-1
-271.650390625 -100 m 1,18,-1
 -260.82421875 -106.25 l 1,19,-1
 -260.82421875 -118.75 l 1,20,-1
 -271.650390625 -125 l 1,21,-1
 -282.4765625 -118.75 l 1,22,-1
 -282.4765625 -106.25 l 1,23,-1
 -271.650390625 -100 l 1,18,-1
-228.349609375 -100 m 1,24,-1
 -217.5234375 -106.25 l 1,25,-1
 -217.5234375 -118.75 l 1,26,-1
 -228.349609375 -125 l 1,27,-1
 -239.17578125 -118.75 l 1,28,-1
 -239.17578125 -106.25 l 1,29,-1
 -228.349609375 -100 l 1,24,-1
EndSplineSet
EndChar

StartChar: uni032D
Encoding: 813 813 110
Width: 0
GlyphClass: 4
Flags: W
LayerCount: 2
Fore
SplineSet
-250 -75 m 1,0,-1
 -239.173828125 -81.25 l 1,1,-1
 -239.173828125 -93.748046875 l 1,2,-1
 -228.349609375 -87.5 l 1,3,-1
 -217.5234375 -93.75 l 1,4,-1
 -217.5234375 -106.25 l 1,5,-1
 -228.349609375 -112.5 l 1,6,-1
 -239.17578125 -106.25 l 1,7,-1
 -239.17578125 -93.751953125 l 1,8,-1
 -250 -100 l 1,9,-1
 -260.82421875 -93.751953125 l 1,10,-1
 -260.82421875 -106.25 l 1,11,-1
 -271.650390625 -112.5 l 1,12,-1
 -282.4765625 -106.25 l 1,13,-1
 -282.4765625 -93.75 l 1,14,-1
 -271.650390625 -87.5 l 1,15,-1
 -260.826171875 -93.748046875 l 1,16,-1
 -260.826171875 -81.25 l 1,17,-1
 -250 -75 l 1,0,-1
EndSplineSet
EndChar

